<svg xmlns="http://www.w3.org/2000/svg" xmlns:xlink="http://www.w3.org/1999/xlink" width="500" zoomAndPan="magnify" viewBox="0 0 375 374.999991" height="500" preserveAspectRatio="xMidYMid meet" version="1.0"><defs><clipPath id="28038c0143"><path d="M 8 9 L 374 9 L 374 374.582031 L 8 374.582031 Z M 8 9 " clip-rule="nonzero"/></clipPath></defs><g clip-path="url(#28038c0143)"><path fill="#f0f0f0" d="M 373.53125 192.09375 C 373.535156 195.078125 373.460938 198.0625 373.3125 201.046875 C 373.167969 204.03125 372.945312 207.007812 372.652344 209.980469 C 372.359375 212.953125 371.996094 215.914062 371.558594 218.867188 C 371.117188 221.824219 370.609375 224.765625 370.023438 227.695312 C 369.441406 230.625 368.789062 233.535156 368.0625 236.433594 C 367.335938 239.332031 366.539062 242.207031 365.671875 245.066406 C 364.804688 247.925781 363.867188 250.757812 362.863281 253.570312 C 361.855469 256.382812 360.78125 259.167969 359.636719 261.929688 C 358.492188 264.6875 357.28125 267.417969 356.003906 270.117188 C 354.726562 272.816406 353.386719 275.484375 351.976562 278.117188 C 350.570312 280.75 349.097656 283.347656 347.558594 285.910156 C 346.023438 288.472656 344.425781 290.996094 342.765625 293.476562 C 341.105469 295.960938 339.386719 298.402344 337.605469 300.800781 C 335.828125 303.199219 333.988281 305.554688 332.09375 307.863281 C 330.199219 310.171875 328.25 312.433594 326.242188 314.644531 C 324.234375 316.859375 322.175781 319.019531 320.0625 321.132812 C 317.949219 323.246094 315.789062 325.304688 313.574219 327.308594 C 311.359375 329.316406 309.097656 331.265625 306.789062 333.160156 C 304.480469 335.054688 302.125 336.890625 299.726562 338.671875 C 297.324219 340.449219 294.882812 342.167969 292.398438 343.828125 C 289.914062 345.488281 287.390625 347.085938 284.828125 348.621094 C 282.265625 350.15625 279.667969 351.625 277.03125 353.035156 C 274.398438 354.441406 271.730469 355.785156 269.027344 357.0625 C 266.328125 358.339844 263.597656 359.546875 260.835938 360.691406 C 258.078125 361.835938 255.289062 362.910156 252.476562 363.914062 C 249.664062 364.921875 246.828125 365.859375 243.96875 366.726562 C 241.109375 367.59375 238.230469 368.386719 235.332031 369.113281 C 232.433594 369.839844 229.519531 370.492188 226.589844 371.078125 C 223.660156 371.660156 220.71875 372.167969 217.761719 372.609375 C 214.804688 373.046875 211.84375 373.410156 208.867188 373.703125 C 205.894531 373.996094 202.917969 374.21875 199.933594 374.363281 C 196.949219 374.511719 193.960938 374.582031 190.976562 374.582031 C 187.988281 374.582031 185 374.511719 182.015625 374.363281 C 179.035156 374.21875 176.054688 373.996094 173.082031 373.703125 C 170.109375 373.410156 167.144531 373.046875 164.1875 372.609375 C 161.234375 372.167969 158.289062 371.660156 155.359375 371.078125 C 152.429688 370.492188 149.515625 369.839844 146.617188 369.113281 C 143.71875 368.386719 140.839844 367.59375 137.980469 366.726562 C 135.121094 365.859375 132.285156 364.921875 129.472656 363.914062 C 126.660156 362.910156 123.875 361.835938 121.113281 360.691406 C 118.351562 359.546875 115.621094 358.339844 112.921875 357.0625 C 110.21875 355.785156 107.550781 354.441406 104.917969 353.035156 C 102.28125 351.625 99.683594 350.15625 97.121094 348.621094 C 94.558594 347.085938 92.035156 345.488281 89.550781 343.828125 C 87.066406 342.167969 84.625 340.449219 82.226562 338.671875 C 79.824219 336.890625 77.472656 335.054688 75.160156 333.160156 C 72.851562 331.265625 70.589844 329.316406 68.375 327.308594 C 66.164062 325.304688 64 323.246094 61.886719 321.132812 C 59.773438 319.019531 57.714844 316.859375 55.707031 314.644531 C 53.703125 312.433594 51.75 310.171875 49.855469 307.863281 C 47.960938 305.554688 46.121094 303.199219 44.34375 300.800781 C 42.5625 298.402344 40.84375 295.960938 39.183594 293.476562 C 37.523438 290.996094 35.925781 288.472656 34.390625 285.910156 C 32.855469 283.347656 31.382812 280.75 29.972656 278.117188 C 28.566406 275.484375 27.222656 272.816406 25.945312 270.117188 C 24.667969 267.417969 23.457031 264.6875 22.3125 261.929688 C 21.171875 259.167969 20.09375 256.382812 19.089844 253.570312 C 18.082031 250.757812 17.144531 247.925781 16.277344 245.066406 C 15.410156 242.207031 14.613281 239.332031 13.886719 236.433594 C 13.160156 233.535156 12.507812 230.625 11.925781 227.695312 C 11.34375 224.765625 10.832031 221.824219 10.394531 218.867188 C 9.953125 215.914062 9.589844 212.953125 9.296875 209.980469 C 9.003906 207.007812 8.785156 204.03125 8.636719 201.046875 C 8.488281 198.0625 8.417969 195.078125 8.417969 192.09375 C 8.417969 189.105469 8.488281 186.121094 8.636719 183.136719 C 8.785156 180.15625 9.003906 177.175781 9.296875 174.203125 C 9.589844 171.234375 9.953125 168.269531 10.394531 165.316406 C 10.832031 162.359375 11.34375 159.417969 11.925781 156.488281 C 12.507812 153.5625 13.160156 150.648438 13.886719 147.75 C 14.613281 144.851562 15.410156 141.976562 16.277344 139.117188 C 17.144531 136.257812 18.082031 133.425781 19.089844 130.613281 C 20.09375 127.800781 21.171875 125.015625 22.3125 122.253906 C 23.457031 119.496094 24.667969 116.765625 25.945312 114.066406 C 27.222656 111.367188 28.566406 108.699219 29.972656 106.066406 C 31.382812 103.433594 32.855469 100.835938 34.390625 98.273438 C 35.925781 95.710938 37.523438 93.1875 39.183594 90.707031 C 40.84375 88.222656 42.5625 85.78125 44.34375 83.382812 C 46.121094 80.984375 47.960938 78.628906 49.855469 76.320312 C 51.75 74.011719 53.703125 71.75 55.707031 69.539062 C 57.714844 67.324219 59.773438 65.164062 61.886719 63.050781 C 64 60.941406 66.164062 58.882812 68.375 56.875 C 70.589844 54.871094 72.851562 52.917969 75.160156 51.023438 C 77.472656 49.128906 79.824219 47.292969 82.226562 45.515625 C 84.625 43.734375 87.066406 42.015625 89.550781 40.355469 C 92.035156 38.695312 94.558594 37.101562 97.121094 35.5625 C 99.683594 34.027344 102.28125 32.558594 104.917969 31.148438 C 107.550781 29.742188 110.21875 28.398438 112.921875 27.121094 C 115.621094 25.84375 118.351562 24.636719 121.113281 23.492188 C 123.875 22.347656 126.660156 21.273438 129.472656 20.269531 C 132.285156 19.261719 135.121094 18.324219 137.980469 17.460938 C 140.839844 16.59375 143.71875 15.796875 146.617188 15.070312 C 149.515625 14.34375 152.429688 13.691406 155.359375 13.109375 C 158.289062 12.523438 161.234375 12.015625 164.1875 11.578125 C 167.144531 11.136719 170.109375 10.773438 173.082031 10.480469 C 176.054688 10.1875 179.035156 9.96875 182.015625 9.820312 C 185 9.675781 187.988281 9.601562 190.976562 9.601562 C 193.960938 9.601562 196.949219 9.675781 199.933594 9.820312 C 202.917969 9.96875 205.894531 10.1875 208.867188 10.480469 C 211.84375 10.773438 214.804688 11.136719 217.761719 11.578125 C 220.71875 12.015625 223.660156 12.523438 226.589844 13.109375 C 229.519531 13.691406 232.433594 14.34375 235.332031 15.070312 C 238.230469 15.796875 241.109375 16.59375 243.96875 17.460938 C 246.828125 18.324219 249.664062 19.261719 252.476562 20.269531 C 255.289062 21.273438 258.078125 22.347656 260.835938 23.492188 C 263.597656 24.636719 266.328125 25.84375 269.027344 27.121094 C 271.730469 28.398438 274.398438 29.742188 277.03125 31.148438 C 279.667969 32.558594 282.265625 34.027344 284.828125 35.5625 C 287.390625 37.101562 289.914062 38.695312 292.398438 40.355469 C 294.882812 42.015625 297.324219 43.734375 299.726562 45.515625 C 302.125 47.292969 304.480469 49.128906 306.789062 51.023438 C 309.097656 52.917969 311.359375 54.871094 313.574219 56.875 C 315.789062 58.878906 317.949219 60.941406 320.0625 63.050781 C 322.175781 65.164062 324.234375 67.324219 326.242188 69.539062 C 328.25 71.75 330.199219 74.011719 332.09375 76.320312 C 333.988281 78.628906 335.828125 80.984375 337.605469 83.382812 C 339.386719 85.78125 341.105469 88.222656 342.765625 90.707031 C 344.425781 93.1875 346.023438 95.710938 347.558594 98.273438 C 349.097656 100.835938 350.570312 103.433594 351.976562 106.066406 C 353.386719 108.699219 354.726562 111.367188 356.003906 114.066406 C 357.28125 116.765625 358.492188 119.496094 359.636719 122.253906 C 360.78125 125.015625 361.855469 127.800781 362.863281 130.613281 C 363.867188 133.425781 364.804688 136.257812 365.671875 139.117188 C 366.539062 141.976562 367.335938 144.851562 368.0625 147.75 C 368.789062 150.648438 369.441406 153.5625 370.023438 156.488281 C 370.609375 159.417969 371.117188 162.359375 371.558594 165.316406 C 371.996094 168.269531 372.359375 171.234375 372.652344 174.203125 C 372.945312 177.175781 373.167969 180.15625 373.3125 183.136719 C 373.460938 186.121094 373.535156 189.105469 373.53125 192.09375 Z M 373.53125 192.09375 " fill-opacity="1" fill-rule="nonzero"/></g><path fill="#ffb8b8" d="M 238.457031 167.816406 C 238.457031 169.46875 238.375 171.117188 238.210938 172.761719 C 238.050781 174.40625 237.808594 176.039062 237.484375 177.660156 C 237.164062 179.28125 236.761719 180.882812 236.28125 182.464844 C 235.800781 184.042969 235.246094 185.597656 234.613281 187.125 C 233.980469 188.652344 233.273438 190.144531 232.496094 191.601562 C 231.714844 193.058594 230.867188 194.472656 229.949219 195.847656 C 229.03125 197.21875 228.046875 198.546875 227 199.824219 C 225.949219 201.101562 224.84375 202.324219 223.671875 203.492188 C 222.503906 204.660156 221.28125 205.769531 220.003906 206.816406 C 218.726562 207.863281 217.398438 208.847656 216.027344 209.765625 C 214.652344 210.683594 213.234375 211.53125 211.777344 212.3125 C 210.320312 213.089844 208.828125 213.796875 207.300781 214.429688 C 205.773438 215.058594 204.21875 215.617188 202.636719 216.097656 C 201.054688 216.574219 199.453125 216.976562 197.832031 217.296875 C 196.210938 217.621094 194.578125 217.863281 192.933594 218.023438 C 191.289062 218.1875 189.640625 218.269531 187.988281 218.269531 C 186.332031 218.269531 184.683594 218.1875 183.039062 218.023438 C 181.394531 217.863281 179.761719 217.621094 178.140625 217.296875 C 176.519531 216.976562 174.917969 216.574219 173.335938 216.097656 C 171.753906 215.617188 170.199219 215.058594 168.671875 214.429688 C 167.144531 213.796875 165.652344 213.089844 164.195312 212.3125 C 162.738281 211.53125 161.320312 210.683594 159.949219 209.765625 C 158.574219 208.847656 157.246094 207.863281 155.96875 206.816406 C 154.691406 205.769531 153.46875 204.660156 152.300781 203.492188 C 151.132812 202.324219 150.023438 201.101562 148.972656 199.824219 C 147.925781 198.546875 146.941406 197.21875 146.023438 195.847656 C 145.105469 194.472656 144.257812 193.058594 143.476562 191.601562 C 142.699219 190.144531 141.992188 188.652344 141.359375 187.125 C 140.726562 185.597656 140.171875 184.042969 139.691406 182.464844 C 139.210938 180.882812 138.808594 179.28125 138.488281 177.660156 C 138.164062 176.039062 137.921875 174.40625 137.761719 172.761719 C 137.597656 171.117188 137.519531 169.46875 137.519531 167.816406 C 137.519531 166.167969 137.597656 164.519531 137.761719 162.875 C 137.921875 161.230469 138.164062 159.597656 138.488281 157.976562 C 138.808594 156.355469 139.210938 154.753906 139.691406 153.171875 C 140.171875 151.59375 140.726562 150.039062 141.359375 148.511719 C 141.992188 146.984375 142.699219 145.492188 143.476562 144.035156 C 144.257812 142.578125 145.105469 141.164062 146.023438 139.789062 C 146.941406 138.414062 147.925781 137.089844 148.972656 135.8125 C 150.023438 134.535156 151.132812 133.3125 152.300781 132.144531 C 153.46875 130.976562 154.691406 129.867188 155.96875 128.820312 C 157.246094 127.773438 158.574219 126.789062 159.949219 125.871094 C 161.320312 124.953125 162.738281 124.105469 164.195312 123.324219 C 165.652344 122.546875 167.144531 121.839844 168.671875 121.207031 C 170.199219 120.578125 171.753906 120.019531 173.335938 119.539062 C 174.917969 119.0625 176.519531 118.660156 178.140625 118.335938 C 179.761719 118.015625 181.394531 117.773438 183.039062 117.609375 C 184.683594 117.449219 186.332031 117.367188 187.988281 117.367188 C 189.640625 117.367188 191.289062 117.449219 192.933594 117.609375 C 194.578125 117.773438 196.210938 118.015625 197.832031 118.335938 C 199.453125 118.660156 201.054688 119.0625 202.636719 119.539062 C 204.21875 120.019531 205.773438 120.578125 207.300781 121.207031 C 208.828125 121.839844 210.320312 122.546875 211.777344 123.324219 C 213.234375 124.105469 214.652344 124.953125 216.023438 125.871094 C 217.398438 126.789062 218.726562 127.773438 220.003906 128.820312 C 221.28125 129.867188 222.503906 130.976562 223.671875 132.144531 C 224.84375 133.3125 225.949219 134.535156 227 135.8125 C 228.046875 137.089844 229.03125 138.414062 229.949219 139.789062 C 230.867188 141.164062 231.714844 142.578125 232.496094 144.035156 C 233.273438 145.492188 233.980469 146.984375 234.613281 148.511719 C 235.246094 150.039062 235.800781 151.59375 236.28125 153.171875 C 236.761719 154.753906 237.164062 156.355469 237.484375 157.976562 C 237.808594 159.597656 238.050781 161.230469 238.210938 162.875 C 238.375 164.519531 238.457031 166.167969 238.457031 167.816406 Z M 238.457031 167.816406 " fill-opacity="1" fill-rule="nonzero"/><path fill="#2f2e41" d="M 140.238281 183.601562 C 140.238281 183.601562 144.527344 176.074219 143.53125 150.929688 C 142.535156 125.78125 180.84375 140.003906 212.851562 137.605469 C 244.863281 135.207031 238.085938 179.589844 238.085938 179.589844 C 238.085938 179.589844 240.394531 176.949219 245.339844 155.53125 C 250.285156 134.109375 239.058594 112.761719 239.058594 112.761719 C 235.753906 90.253906 217.933594 97.46875 217.933594 97.46875 C 226.515625 100.808594 224.867188 107.945312 224.867188 107.945312 C 217.601562 95.214844 199.785156 102.429688 199.785156 102.429688 C 176.019531 87.523438 151.933594 107.15625 151.933594 107.15625 C 123.226562 113.667969 140.0625 136.492188 140.0625 136.492188 C 111.191406 151.074219 140.238281 183.601562 140.238281 183.601562 Z M 140.238281 183.601562 " fill-opacity="1" fill-rule="nonzero"/><path fill="#3b82f6" d="M 272.199219 286.226562 C 257.789062 278.632812 242.828125 272.339844 227.320312 267.34375 L 225.34375 245.519531 L 145.304688 236.902344 L 135.132812 264.796875 L 106.410156 275.570312 C 105.378906 275.960938 104.40625 276.46875 103.492188 277.089844 L 103.460938 277.089844 C 98.683594 277.492188 94.292969 279.011719 90.285156 281.640625 C 87.59375 283.359375 85.246094 285.464844 83.242188 287.957031 C 87.128906 290.898438 91.164062 293.632812 95.324219 296.242188 L 95.507812 296.332031 C 96.691406 297.0625 97.910156 297.789062 99.121094 298.488281 C 101.308594 299.792969 103.554688 301.039062 105.800781 302.222656 L 107.230469 302.949219 C 110.507812 304.648438 113.847656 306.257812 117.28125 307.746094 C 117.976562 308.050781 118.738281 308.351562 119.4375 308.65625 C 119.496094 308.6875 119.527344 308.6875 119.585938 308.71875 C 121.199219 309.386719 122.804688 310.023438 124.445312 310.628906 C 129.835938 312.6875 135.320312 314.449219 140.902344 315.910156 C 155.199219 319.71875 169.742188 321.621094 184.535156 321.617188 C 189.910156 321.617188 195.226562 321.375 200.480469 320.859375 C 212.515625 319.746094 224.296875 317.371094 235.824219 313.726562 C 235.851562 313.726562 235.882812 313.695312 235.914062 313.695312 C 243.183594 311.378906 250.257812 308.578125 257.136719 305.285156 C 257.167969 305.257812 257.230469 305.257812 257.261719 305.226562 C 258.808594 304.496094 260.296875 303.707031 261.8125 302.949219 L 262.542969 302.585938 C 263.757812 301.949219 264.972656 301.3125 266.1875 300.644531 C 269.222656 298.972656 272.199219 297.214844 275.144531 295.332031 C 275.960938 294.84375 276.753906 294.328125 277.574219 293.78125 C 278.726562 293.023438 279.878906 292.234375 281.003906 291.414062 C 278.179688 289.59375 275.234375 287.863281 272.199219 286.226562 Z M 272.199219 286.226562 " fill-opacity="1" fill-rule="nonzero"/></svg>