<svg xmlns="http://www.w3.org/2000/svg" xmlns:xlink="http://www.w3.org/1999/xlink" width="500" zoomAndPan="magnify" viewBox="0 0 375 187.499995" height="250" preserveAspectRatio="xMidYMid meet" version="1.0"><defs><clipPath id="3adeabe795"><path d="M 0.5 0 L 374.5 0 L 374.5 187 L 0.5 187 Z M 0.5 0 " clip-rule="nonzero"/></clipPath><clipPath id="d354ba6f2e"><path d="M 146 0 L 374.5 0 L 374.5 80 L 146 80 Z M 146 0 " clip-rule="nonzero"/></clipPath><clipPath id="ec4d2be3b1"><path d="M 130 0 L 374.5 0 L 374.5 98 L 130 98 Z M 130 0 " clip-rule="nonzero"/></clipPath><clipPath id="1dcf606bb4"><path d="M 194 96 L 374.5 96 L 374.5 125 L 194 125 Z M 194 96 " clip-rule="nonzero"/></clipPath><clipPath id="6ca3ac41ca"><path d="M 48 12 L 196 12 L 196 186.96875 L 48 186.96875 Z M 48 12 " clip-rule="nonzero"/></clipPath><clipPath id="2f26dcfffc"><path d="M 4 56 L 71 56 L 71 186.96875 L 4 186.96875 Z M 4 56 " clip-rule="nonzero"/></clipPath><clipPath id="78ff4270da"><path d="M 0.5 185 L 374.5 185 L 374.5 186.96875 L 0.5 186.96875 Z M 0.5 185 " clip-rule="nonzero"/></clipPath><clipPath id="2f66d39987"><path d="M 200 167 L 344 167 L 344 186.96875 L 200 186.96875 Z M 200 167 " clip-rule="nonzero"/></clipPath></defs><g clip-path="url(#3adeabe795)"><path fill="#ffffff" d="M 0.5 0 L 374.5 0 L 374.5 187 L 0.5 187 Z M 0.5 0 " fill-opacity="1" fill-rule="nonzero"/><path fill="#ffffff" d="M 0.5 0 L 374.5 0 L 374.5 187 L 0.5 187 Z M 0.5 0 " fill-opacity="1" fill-rule="nonzero"/></g><path fill="#e6e6e6" d="M 213.410156 185.785156 L 331.652344 185.785156 C 336.320312 185.785156 336.328125 178.53125 331.652344 178.53125 L 213.410156 178.53125 C 208.742188 178.53125 208.734375 185.785156 213.410156 185.785156 Z M 213.410156 185.785156 " fill-opacity="1" fill-rule="nonzero"/><path fill="#3b82f6" d="M 181.488281 28.113281 L 63.640625 28.113281 C 63.332031 28.113281 63.027344 28.144531 62.726562 28.203125 C 62.421875 28.265625 62.128906 28.355469 61.84375 28.472656 C 61.5625 28.589844 61.289062 28.734375 61.035156 28.90625 C 60.777344 29.078125 60.539062 29.273438 60.324219 29.492188 C 60.105469 29.707031 59.910156 29.945312 59.738281 30.203125 C 59.566406 30.457031 59.421875 30.730469 59.304688 31.015625 C 59.1875 31.296875 59.097656 31.59375 59.035156 31.894531 C 58.976562 32.195312 58.945312 32.5 58.945312 32.808594 L 58.945312 56.226562 C 64.824219 56.363281 68.640625 61.214844 69.5625 67.105469 L 69.5625 88.332031 L 70.011719 88.332031 C 70.085938 88.332031 70.148438 88.359375 70.199219 88.410156 C 70.253906 88.460938 70.277344 88.527344 70.277344 88.601562 L 70.277344 99.894531 C 70.277344 99.96875 70.253906 100.03125 70.199219 100.085938 C 70.148438 100.136719 70.085938 100.164062 70.011719 100.164062 L 69.5625 100.164062 L 69.5625 168.433594 C 69.5625 169.933594 69.550781 172.667969 69.550781 172.667969 L 181.488281 172.667969 C 181.792969 172.667969 182.101562 172.640625 182.402344 172.578125 C 182.703125 172.519531 182.996094 172.429688 183.28125 172.3125 C 183.566406 172.191406 183.835938 172.046875 184.09375 171.875 C 184.351562 171.707031 184.585938 171.511719 184.804688 171.292969 C 185.023438 171.074219 185.21875 170.835938 185.390625 170.582031 C 185.558594 170.324219 185.703125 170.054688 185.824219 169.769531 C 185.941406 169.484375 186.03125 169.191406 186.089844 168.890625 C 186.152344 168.585938 186.179688 168.28125 186.183594 167.972656 L 186.183594 32.808594 C 186.179688 32.5 186.152344 32.195312 186.089844 31.894531 C 186.03125 31.59375 185.941406 31.296875 185.824219 31.015625 C 185.703125 30.730469 185.558594 30.457031 185.390625 30.203125 C 185.21875 29.945312 185.023438 29.707031 184.804688 29.492188 C 184.585938 29.273438 184.351562 29.078125 184.09375 28.90625 C 183.835938 28.734375 183.566406 28.589844 183.28125 28.472656 C 182.996094 28.355469 182.703125 28.265625 182.402344 28.203125 C 182.101562 28.144531 181.792969 28.113281 181.488281 28.113281 Z M 181.488281 28.113281 " fill-opacity="1" fill-rule="nonzero"/><g clip-path="url(#d354ba6f2e)"><path fill="#3b82f6" d="M 400.4375 -48.929688 L 400.4375 79.195312 L 194.332031 79.195312 L 194.332031 22.785156 C 194.332031 22.148438 194.269531 21.519531 194.144531 20.898438 C 194.019531 20.277344 193.835938 19.671875 193.59375 19.085938 C 193.351562 18.5 193.054688 17.945312 192.703125 17.417969 C 192.347656 16.890625 191.949219 16.402344 191.5 15.953125 C 191.050781 15.507812 190.5625 15.105469 190.039062 14.753906 C 189.511719 14.402344 188.953125 14.101562 188.367188 13.859375 C 187.78125 13.617188 187.179688 13.433594 186.558594 13.308594 C 185.933594 13.183594 185.308594 13.125 184.671875 13.121094 L 146.019531 13.121094 L 146.019531 -48.929688 Z M 400.4375 -48.929688 " fill-opacity="1" fill-rule="nonzero"/></g><g clip-path="url(#ec4d2be3b1)"><path fill="#3f3d56" d="M 413.164062 97.257812 L 194.5625 97.257812 L 194.5625 96.363281 L 412.269531 96.363281 L 412.269531 -54.527344 C 412.269531 -54.96875 412.226562 -55.402344 412.140625 -55.835938 C 412.054688 -56.265625 411.925781 -56.683594 411.757812 -57.089844 C 411.589844 -57.496094 411.382812 -57.882812 411.140625 -58.246094 C 410.894531 -58.613281 410.617188 -58.953125 410.308594 -59.261719 C 409.996094 -59.574219 409.660156 -59.851562 409.292969 -60.09375 C 408.929688 -60.339844 408.542969 -60.546875 408.136719 -60.714844 C 407.730469 -60.882812 407.3125 -61.007812 406.882812 -61.097656 C 406.449219 -61.183594 406.015625 -61.226562 405.574219 -61.226562 L 138.210938 -61.226562 C 137.773438 -61.226562 137.339844 -61.183594 136.90625 -61.097656 C 136.476562 -61.007812 136.058594 -60.882812 135.652344 -60.714844 C 135.246094 -60.546875 134.859375 -60.339844 134.496094 -60.09375 C 134.128906 -59.851562 133.792969 -59.574219 133.480469 -59.261719 C 133.171875 -58.953125 132.890625 -58.613281 132.648438 -58.246094 C 132.402344 -57.882812 132.199219 -57.496094 132.03125 -57.089844 C 131.859375 -56.683594 131.734375 -56.265625 131.648438 -55.835938 C 131.5625 -55.402344 131.519531 -54.96875 131.519531 -54.527344 L 131.519531 12.542969 L 130.625 12.542969 L 130.625 -54.527344 C 130.625 -55.027344 130.675781 -55.519531 130.773438 -56.007812 C 130.871094 -56.496094 131.015625 -56.972656 131.203125 -57.433594 C 131.394531 -57.890625 131.628906 -58.328125 131.90625 -58.742188 C 132.183594 -59.15625 132.496094 -59.539062 132.851562 -59.894531 C 133.203125 -60.246094 133.585938 -60.558594 134 -60.835938 C 134.414062 -61.113281 134.851562 -61.347656 135.308594 -61.539062 C 135.769531 -61.730469 136.246094 -61.875 136.734375 -61.972656 C 137.222656 -62.070312 137.714844 -62.117188 138.210938 -62.117188 L 405.574219 -62.117188 C 406.074219 -62.117188 406.566406 -62.070312 407.054688 -61.972656 C 407.542969 -61.875 408.019531 -61.730469 408.476562 -61.539062 C 408.9375 -61.347656 409.375 -61.113281 409.789062 -60.835938 C 410.203125 -60.558594 410.585938 -60.246094 410.9375 -59.894531 C 411.289062 -59.539062 411.605469 -59.15625 411.882812 -58.742188 C 412.160156 -58.328125 412.394531 -57.890625 412.582031 -57.433594 C 412.773438 -56.972656 412.917969 -56.496094 413.015625 -56.007812 C 413.113281 -55.519531 413.164062 -55.027344 413.164062 -54.527344 Z M 413.164062 97.257812 " fill-opacity="1" fill-rule="nonzero"/></g><g clip-path="url(#1dcf606bb4)"><path fill="#3f3d56" d="M 392.449219 124.488281 L 194.5625 124.488281 L 194.5625 123.597656 L 392.449219 123.597656 C 393.097656 123.59375 393.746094 123.5625 394.394531 123.5 C 395.039062 123.433594 395.679688 123.339844 396.316406 123.210938 C 396.953125 123.085938 397.582031 122.925781 398.203125 122.738281 C 398.824219 122.546875 399.433594 122.328125 400.03125 122.082031 C 400.632812 121.832031 401.21875 121.554688 401.789062 121.25 C 402.363281 120.941406 402.917969 120.609375 403.457031 120.246094 C 403.996094 119.886719 404.515625 119.5 405.019531 119.089844 C 405.519531 118.675781 406 118.242188 406.460938 117.78125 C 406.917969 117.324219 407.351562 116.84375 407.765625 116.34375 C 408.175781 115.839844 408.5625 115.320312 408.921875 114.78125 C 409.285156 114.242188 409.617188 113.683594 409.925781 113.113281 C 410.230469 112.539062 410.507812 111.953125 410.757812 111.355469 C 411.003906 110.753906 411.222656 110.144531 411.414062 109.523438 C 411.601562 108.902344 411.757812 108.273438 411.886719 107.636719 C 412.011719 107 412.109375 106.359375 412.171875 105.714844 C 412.238281 105.070312 412.269531 104.421875 412.269531 103.773438 L 412.269531 97.257812 L 194.5625 97.257812 L 194.5625 96.363281 L 413.164062 96.363281 L 413.164062 103.773438 C 413.164062 104.449219 413.128906 105.125 413.0625 105.800781 C 412.996094 106.476562 412.894531 107.148438 412.761719 107.8125 C 412.628906 108.476562 412.464844 109.132812 412.265625 109.785156 C 412.070312 110.433594 411.839844 111.070312 411.582031 111.695312 C 411.320312 112.324219 411.03125 112.933594 410.710938 113.535156 C 410.390625 114.132812 410.042969 114.710938 409.664062 115.277344 C 409.289062 115.839844 408.886719 116.382812 408.453125 116.910156 C 408.023438 117.433594 407.570312 117.933594 407.089844 118.414062 C 406.609375 118.894531 406.109375 119.347656 405.585938 119.777344 C 405.058594 120.210938 404.515625 120.613281 403.953125 120.988281 C 403.390625 121.367188 402.808594 121.714844 402.210938 122.035156 C 401.613281 122.355469 401 122.644531 400.375 122.90625 C 399.746094 123.164062 399.109375 123.394531 398.460938 123.589844 C 397.8125 123.789062 397.15625 123.953125 396.488281 124.085938 C 395.824219 124.21875 395.15625 124.320312 394.480469 124.386719 C 393.804688 124.453125 393.128906 124.488281 392.449219 124.488281 Z M 392.449219 124.488281 " fill-opacity="1" fill-rule="nonzero"/></g><path fill="#3f3d56" d="M 333.722656 168.238281 C 322.691406 157.644531 315.433594 143.820312 313.101562 124.488281 L 231.796875 124.488281 C 230.96875 142.574219 223.757812 156.140625 210.75 168.191406 L 209.375 168.238281 C 222.796875 156.074219 230.1875 142.410156 230.921875 124.023438 L 230.9375 123.597656 L 313.894531 123.597656 L 313.941406 123.992188 C 316.230469 143.648438 323.640625 157.5625 334.941406 168.167969 Z M 333.722656 168.238281 " fill-opacity="1" fill-rule="nonzero"/><g clip-path="url(#6ca3ac41ca)"><path fill="#3f3d56" d="M 184.457031 186.707031 L 59.214844 186.707031 L 59.214844 185.816406 L 184.457031 185.816406 C 185.089844 185.816406 185.71875 185.753906 186.339844 185.628906 C 186.960938 185.503906 187.566406 185.320312 188.152344 185.078125 C 188.738281 184.835938 189.292969 184.535156 189.820312 184.183594 C 190.347656 183.832031 190.835938 183.429688 191.285156 182.984375 C 191.730469 182.535156 192.132812 182.046875 192.484375 181.519531 C 192.835938 180.992188 193.136719 180.4375 193.378906 179.851562 C 193.621094 179.265625 193.804688 178.660156 193.929688 178.039062 C 194.054688 177.417969 194.117188 176.789062 194.117188 176.15625 L 194.117188 22.988281 C 194.117188 22.355469 194.054688 21.726562 193.929688 21.105469 C 193.804688 20.484375 193.621094 19.878906 193.378906 19.292969 C 193.136719 18.707031 192.835938 18.152344 192.484375 17.625 C 192.132812 17.097656 191.730469 16.609375 191.285156 16.160156 C 190.835938 15.710938 190.347656 15.3125 189.820312 14.960938 C 189.292969 14.605469 188.738281 14.308594 188.152344 14.066406 C 187.566406 13.824219 186.960938 13.640625 186.339844 13.515625 C 185.71875 13.390625 185.089844 13.328125 184.457031 13.328125 L 59.214844 13.328125 C 58.578125 13.328125 57.953125 13.390625 57.328125 13.515625 C 56.707031 13.640625 56.105469 13.824219 55.519531 14.066406 C 54.933594 14.308594 54.375 14.605469 53.851562 14.960938 C 53.324219 15.3125 52.835938 15.710938 52.386719 16.160156 C 51.9375 16.609375 51.539062 17.097656 51.1875 17.625 C 50.832031 18.152344 50.535156 18.707031 50.292969 19.292969 C 50.050781 19.878906 49.867188 20.484375 49.742188 21.105469 C 49.617188 21.726562 49.554688 22.355469 49.554688 22.988281 L 49.554688 56.042969 L 48.660156 56.042969 L 48.660156 22.988281 C 48.664062 22.296875 48.730469 21.609375 48.867188 20.929688 C 49.003906 20.25 49.203125 19.589844 49.46875 18.953125 C 49.734375 18.3125 50.058594 17.703125 50.445312 17.128906 C 50.828125 16.550781 51.265625 16.019531 51.753906 15.53125 C 52.246094 15.039062 52.777344 14.601562 53.355469 14.21875 C 53.929688 13.832031 54.539062 13.507812 55.175781 13.242188 C 55.816406 12.976562 56.476562 12.777344 57.15625 12.640625 C 57.835938 12.503906 58.519531 12.4375 59.214844 12.433594 L 184.457031 12.433594 C 185.148438 12.4375 185.835938 12.503906 186.515625 12.640625 C 187.195312 12.777344 187.855469 12.976562 188.492188 13.242188 C 189.132812 13.507812 189.742188 13.832031 190.316406 14.21875 C 190.890625 14.601562 191.425781 15.039062 191.914062 15.53125 C 192.40625 16.019531 192.84375 16.550781 193.226562 17.128906 C 193.613281 17.703125 193.9375 18.3125 194.203125 18.953125 C 194.46875 19.589844 194.667969 20.25 194.804688 20.929688 C 194.941406 21.609375 195.007812 22.296875 195.007812 22.988281 L 195.007812 176.15625 C 195.007812 176.847656 194.941406 177.535156 194.804688 178.214844 C 194.667969 178.894531 194.46875 179.550781 194.203125 180.191406 C 193.9375 180.832031 193.613281 181.441406 193.226562 182.015625 C 192.84375 182.589844 192.40625 183.125 191.914062 183.613281 C 191.425781 184.105469 190.890625 184.542969 190.316406 184.925781 C 189.742188 185.3125 189.132812 185.636719 188.492188 185.902344 C 187.855469 186.167969 187.195312 186.367188 186.515625 186.503906 C 185.835938 186.640625 185.148438 186.707031 184.457031 186.707031 Z M 184.457031 186.707031 " fill-opacity="1" fill-rule="nonzero"/></g><path fill="#3f3d56" d="M 121.835938 23.730469 C 121.433594 23.730469 121.046875 23.652344 120.675781 23.5 C 120.304688 23.347656 119.980469 23.128906 119.695312 22.84375 C 119.410156 22.558594 119.191406 22.234375 119.039062 21.863281 C 118.886719 21.492188 118.808594 21.105469 118.808594 20.703125 C 118.808594 20.300781 118.886719 19.917969 119.039062 19.546875 C 119.191406 19.175781 119.410156 18.847656 119.695312 18.5625 C 119.980469 18.28125 120.304688 18.0625 120.675781 17.90625 C 121.046875 17.753906 121.433594 17.675781 121.835938 17.675781 C 122.238281 17.675781 122.621094 17.753906 122.992188 17.90625 C 123.363281 18.058594 123.691406 18.277344 123.976562 18.5625 C 124.257812 18.847656 124.476562 19.175781 124.632812 19.546875 C 124.785156 19.917969 124.863281 20.300781 124.863281 20.703125 C 124.863281 21.105469 124.785156 21.492188 124.628906 21.863281 C 124.476562 22.230469 124.257812 22.558594 123.972656 22.84375 C 123.691406 23.128906 123.363281 23.347656 122.992188 23.5 C 122.621094 23.652344 122.238281 23.730469 121.835938 23.730469 Z M 121.835938 18.375 C 121.527344 18.375 121.230469 18.433594 120.945312 18.554688 C 120.660156 18.671875 120.40625 18.839844 120.191406 19.058594 C 119.972656 19.277344 119.804688 19.527344 119.683594 19.8125 C 119.566406 20.097656 119.507812 20.394531 119.507812 20.703125 C 119.507812 21.011719 119.566406 21.308594 119.683594 21.59375 C 119.804688 21.878906 119.972656 22.132812 120.191406 22.347656 C 120.40625 22.566406 120.660156 22.734375 120.945312 22.855469 C 121.230469 22.972656 121.527344 23.03125 121.835938 23.03125 C 122.144531 23.03125 122.441406 22.972656 122.726562 22.855469 C 123.011719 22.734375 123.261719 22.566406 123.480469 22.347656 C 123.699219 22.132812 123.867188 21.878906 123.984375 21.59375 C 124.101562 21.308594 124.164062 21.011719 124.164062 20.703125 C 124.160156 20.394531 124.101562 20.097656 123.984375 19.8125 C 123.867188 19.527344 123.699219 19.277344 123.480469 19.058594 C 123.261719 18.839844 123.011719 18.671875 122.726562 18.554688 C 122.441406 18.4375 122.144531 18.375 121.835938 18.375 Z M 121.835938 18.375 " fill-opacity="1" fill-rule="nonzero"/><path fill="#3f3d56" d="M 121.835938 183.285156 C 121.324219 183.285156 120.832031 183.1875 120.355469 182.992188 C 119.882812 182.796875 119.464844 182.515625 119.105469 182.15625 C 118.742188 181.792969 118.464844 181.375 118.265625 180.902344 C 118.070312 180.429688 117.972656 179.9375 117.972656 179.421875 C 117.972656 178.910156 118.070312 178.417969 118.265625 177.945312 C 118.464844 177.472656 118.742188 177.054688 119.105469 176.691406 C 119.464844 176.332031 119.882812 176.050781 120.355469 175.855469 C 120.832031 175.660156 121.324219 175.5625 121.835938 175.5625 C 122.347656 175.5625 122.839844 175.660156 123.3125 175.855469 C 123.785156 176.050781 124.203125 176.328125 124.566406 176.691406 C 124.929688 177.054688 125.207031 177.472656 125.402344 177.945312 C 125.597656 178.417969 125.699219 178.910156 125.699219 179.421875 C 125.695312 179.9375 125.597656 180.429688 125.402344 180.902344 C 125.207031 181.375 124.925781 181.792969 124.566406 182.152344 C 124.203125 182.515625 123.785156 182.796875 123.3125 182.992188 C 122.839844 183.1875 122.347656 183.285156 121.835938 183.285156 Z M 121.835938 176.453125 C 121.441406 176.453125 121.0625 176.527344 120.699219 176.679688 C 120.335938 176.832031 120.015625 177.046875 119.734375 177.324219 C 119.457031 177.601562 119.242188 177.921875 119.09375 178.289062 C 118.941406 178.652344 118.867188 179.03125 118.867188 179.421875 C 118.867188 179.816406 118.941406 180.195312 119.09375 180.558594 C 119.242188 180.925781 119.457031 181.246094 119.734375 181.523438 C 120.015625 181.800781 120.335938 182.015625 120.699219 182.167969 C 121.0625 182.316406 121.441406 182.394531 121.835938 182.394531 C 122.230469 182.394531 122.609375 182.316406 122.972656 182.167969 C 123.335938 182.015625 123.65625 181.800781 123.933594 181.523438 C 124.214844 181.246094 124.429688 180.925781 124.578125 180.558594 C 124.730469 180.195312 124.804688 179.816406 124.804688 179.421875 C 124.804688 179.03125 124.730469 178.652344 124.578125 178.289062 C 124.425781 177.925781 124.210938 177.601562 123.933594 177.324219 C 123.65625 177.046875 123.335938 176.832031 122.972656 176.679688 C 122.609375 176.53125 122.230469 176.453125 121.835938 176.453125 Z M 121.835938 176.453125 " fill-opacity="1" fill-rule="nonzero"/><g clip-path="url(#2f26dcfffc)"><path fill="#3f3d56" d="M 57.957031 186.96875 L 16.496094 186.96875 C 15.722656 186.964844 14.957031 186.890625 14.199219 186.738281 C 13.441406 186.585938 12.707031 186.363281 11.992188 186.066406 C 11.277344 185.769531 10.601562 185.410156 9.957031 184.980469 C 9.316406 184.550781 8.722656 184.0625 8.175781 183.515625 C 7.628906 182.96875 7.140625 182.375 6.710938 181.730469 C 6.28125 181.089844 5.917969 180.410156 5.625 179.695312 C 5.328125 178.984375 5.101562 178.246094 4.953125 177.488281 C 4.800781 176.730469 4.722656 175.964844 4.722656 175.191406 L 4.722656 67.816406 C 4.722656 67.042969 4.800781 66.277344 4.953125 65.519531 C 5.101562 64.761719 5.328125 64.027344 5.625 63.3125 C 5.917969 62.597656 6.28125 61.921875 6.710938 61.277344 C 7.140625 60.636719 7.628906 60.042969 8.175781 59.496094 C 8.722656 58.949219 9.316406 58.460938 9.957031 58.03125 C 10.601562 57.601562 11.277344 57.238281 11.992188 56.941406 C 12.707031 56.644531 13.441406 56.421875 14.199219 56.269531 C 14.957031 56.121094 15.722656 56.042969 16.496094 56.042969 L 57.957031 56.042969 C 58.726562 56.042969 59.492188 56.121094 60.25 56.269531 C 61.007812 56.421875 61.746094 56.644531 62.457031 56.941406 C 63.171875 57.238281 63.851562 57.601562 64.492188 58.03125 C 65.136719 58.460938 65.730469 58.949219 66.277344 59.496094 C 66.820312 60.042969 67.308594 60.636719 67.738281 61.277344 C 68.167969 61.921875 68.53125 62.597656 68.828125 63.3125 C 69.125 64.027344 69.347656 64.761719 69.5 65.519531 C 69.652344 66.277344 69.726562 67.042969 69.726562 67.816406 L 69.726562 87.03125 C 69.945312 87.121094 70.117188 87.265625 70.246094 87.460938 C 70.375 87.65625 70.441406 87.871094 70.441406 88.105469 L 70.441406 100.605469 C 70.441406 100.839844 70.375 101.054688 70.246094 101.25 C 70.117188 101.445312 69.945312 101.589844 69.726562 101.679688 L 69.726562 175.191406 C 69.726562 175.964844 69.652344 176.730469 69.5 177.488281 C 69.347656 178.246094 69.125 178.984375 68.828125 179.695312 C 68.53125 180.410156 68.167969 181.089844 67.738281 181.730469 C 67.308594 182.375 66.820312 182.96875 66.277344 183.515625 C 65.730469 184.0625 65.136719 184.550781 64.492188 184.980469 C 63.851562 185.410156 63.171875 185.769531 62.457031 186.066406 C 61.746094 186.363281 61.007812 186.585938 60.25 186.738281 C 59.492188 186.890625 58.726562 186.964844 57.957031 186.96875 Z M 16.496094 56.9375 C 15.78125 56.9375 15.074219 57.007812 14.375 57.148438 C 13.675781 57.285156 12.992188 57.492188 12.335938 57.765625 C 11.675781 58.039062 11.046875 58.375 10.453125 58.773438 C 9.859375 59.171875 9.3125 59.621094 8.804688 60.125 C 8.300781 60.632812 7.851562 61.179688 7.453125 61.773438 C 7.058594 62.367188 6.722656 62.996094 6.449219 63.65625 C 6.175781 64.316406 5.96875 64.996094 5.828125 65.695312 C 5.6875 66.394531 5.617188 67.101562 5.617188 67.816406 L 5.617188 175.191406 C 5.617188 175.90625 5.6875 176.613281 5.828125 177.316406 C 5.96875 178.015625 6.175781 178.695312 6.449219 179.355469 C 6.722656 180.015625 7.058594 180.640625 7.453125 181.234375 C 7.851562 181.828125 8.300781 182.378906 8.804688 182.882812 C 9.3125 183.390625 9.859375 183.839844 10.453125 184.238281 C 11.046875 184.632812 11.675781 184.96875 12.335938 185.242188 C 12.992188 185.515625 13.675781 185.722656 14.375 185.863281 C 15.074219 186.003906 15.78125 186.074219 16.496094 186.074219 L 57.957031 186.074219 C 58.667969 186.074219 59.375 186.003906 60.078125 185.863281 C 60.777344 185.722656 61.457031 185.515625 62.117188 185.242188 C 62.777344 184.96875 63.402344 184.632812 63.996094 184.238281 C 64.589844 183.839844 65.140625 183.390625 65.644531 182.882812 C 66.148438 182.378906 66.601562 181.828125 66.996094 181.234375 C 67.394531 180.640625 67.730469 180.015625 68.003906 179.355469 C 68.277344 178.695312 68.484375 178.015625 68.625 177.316406 C 68.765625 176.613281 68.835938 175.90625 68.835938 175.191406 L 68.835938 100.875 L 69.28125 100.875 C 69.355469 100.875 69.417969 100.847656 69.472656 100.796875 C 69.523438 100.746094 69.550781 100.679688 69.550781 100.605469 L 69.550781 88.105469 C 69.550781 88.03125 69.523438 87.96875 69.472656 87.914062 C 69.417969 87.863281 69.355469 87.835938 69.28125 87.835938 L 68.835938 87.835938 L 68.835938 67.816406 C 68.835938 67.101562 68.765625 66.394531 68.625 65.695312 C 68.484375 64.996094 68.277344 64.316406 68.003906 63.65625 C 67.730469 62.996094 67.394531 62.367188 66.996094 61.773438 C 66.601562 61.179688 66.148438 60.632812 65.644531 60.125 C 65.140625 59.621094 64.589844 59.171875 63.996094 58.773438 C 63.402344 58.375 62.777344 58.039062 62.117188 57.765625 C 61.457031 57.492188 60.777344 57.285156 60.078125 57.148438 C 59.375 57.007812 58.667969 56.9375 57.957031 56.9375 Z M 16.496094 56.9375 " fill-opacity="1" fill-rule="nonzero"/></g><path fill="#3b82f6" d="M 58.414062 59.4375 L 53 59.4375 C 53.125 59.742188 53.210938 60.058594 53.257812 60.382812 C 53.304688 60.710938 53.3125 61.035156 53.277344 61.363281 C 53.242188 61.691406 53.171875 62.011719 53.058594 62.320312 C 52.945312 62.628906 52.796875 62.921875 52.613281 63.195312 C 52.429688 63.46875 52.21875 63.714844 51.972656 63.9375 C 51.726562 64.160156 51.460938 64.347656 51.167969 64.5 C 50.878906 64.65625 50.574219 64.773438 50.253906 64.851562 C 49.933594 64.933594 49.609375 64.972656 49.28125 64.972656 L 25.527344 64.972656 C 25.199219 64.972656 24.875 64.933594 24.554688 64.851562 C 24.234375 64.773438 23.929688 64.65625 23.640625 64.5 C 23.347656 64.347656 23.082031 64.160156 22.835938 63.9375 C 22.589844 63.714844 22.378906 63.46875 22.195312 63.195312 C 22.011719 62.921875 21.863281 62.628906 21.75 62.320312 C 21.636719 62.011719 21.566406 61.691406 21.53125 61.363281 C 21.496094 61.035156 21.503906 60.710938 21.550781 60.382812 C 21.597656 60.058594 21.683594 59.742188 21.808594 59.4375 L 16.753906 59.4375 C 16.199219 59.4375 15.648438 59.492188 15.101562 59.597656 C 14.558594 59.707031 14.03125 59.867188 13.515625 60.082031 C 13.003906 60.292969 12.515625 60.554688 12.054688 60.863281 C 11.59375 61.171875 11.164062 61.519531 10.773438 61.914062 C 10.378906 62.308594 10.027344 62.734375 9.71875 63.195312 C 9.414062 63.65625 9.152344 64.144531 8.9375 64.660156 C 8.726562 65.171875 8.566406 65.699219 8.457031 66.246094 C 8.347656 66.789062 8.296875 67.339844 8.296875 67.894531 L 8.296875 175.113281 C 8.296875 175.667969 8.347656 176.21875 8.457031 176.765625 C 8.566406 177.308594 8.726562 177.839844 8.9375 178.351562 C 9.152344 178.863281 9.414062 179.351562 9.71875 179.8125 C 10.027344 180.277344 10.378906 180.703125 10.773438 181.097656 C 11.164062 181.488281 11.59375 181.839844 12.054688 182.148438 C 12.515625 182.457031 13.003906 182.71875 13.515625 182.929688 C 14.03125 183.140625 14.558594 183.304688 15.101562 183.410156 C 15.648438 183.519531 16.199219 183.574219 16.753906 183.574219 L 58.414062 183.574219 C 58.96875 183.574219 59.519531 183.519531 60.0625 183.410156 C 60.605469 183.304688 61.136719 183.140625 61.648438 182.929688 C 62.164062 182.71875 62.648438 182.457031 63.113281 182.148438 C 63.574219 181.839844 64 181.488281 64.394531 181.097656 C 64.785156 180.703125 65.136719 180.277344 65.445312 179.8125 C 65.753906 179.351562 66.015625 178.863281 66.226562 178.351562 C 66.4375 177.839844 66.597656 177.308594 66.707031 176.765625 C 66.816406 176.21875 66.871094 175.667969 66.871094 175.113281 L 66.871094 67.894531 C 66.871094 67.339844 66.816406 66.789062 66.707031 66.246094 C 66.597656 65.699219 66.4375 65.171875 66.226562 64.660156 C 66.015625 64.144531 65.753906 63.65625 65.445312 63.195312 C 65.136719 62.734375 64.785156 62.308594 64.394531 61.914062 C 64 61.519531 63.574219 61.171875 63.113281 60.863281 C 62.648438 60.554688 62.164062 60.292969 61.648438 60.082031 C 61.136719 59.867188 60.605469 59.707031 60.0625 59.597656 C 59.519531 59.492188 58.96875 59.4375 58.414062 59.4375 Z M 58.414062 59.4375 " fill-opacity="1" fill-rule="nonzero"/><g clip-path="url(#78ff4270da)"><path fill="#3f3d56" d="M 505.222656 186.792969 L -49.957031 186.792969 C -50.101562 186.792969 -50.226562 186.742188 -50.332031 186.636719 C -50.433594 186.53125 -50.488281 186.40625 -50.488281 186.261719 C -50.488281 186.113281 -50.433594 185.988281 -50.332031 185.886719 C -50.226562 185.78125 -50.101562 185.730469 -49.957031 185.730469 L 505.222656 185.730469 C 505.371094 185.730469 505.496094 185.78125 505.597656 185.886719 C 505.703125 185.988281 505.753906 186.113281 505.753906 186.261719 C 505.753906 186.40625 505.703125 186.53125 505.597656 186.636719 C 505.496094 186.742188 505.371094 186.792969 505.222656 186.792969 Z M 505.222656 186.792969 " fill-opacity="1" fill-rule="nonzero"/></g><g clip-path="url(#2f66d39987)"><path fill="#3f3d56" d="M 333.996094 186.542969 L 210.359375 186.542969 C 209.742188 186.542969 209.132812 186.480469 208.53125 186.363281 C 207.925781 186.242188 207.339844 186.0625 206.769531 185.828125 C 206.203125 185.59375 205.664062 185.304688 205.152344 184.960938 C 204.640625 184.621094 204.164062 184.230469 203.730469 183.796875 C 203.292969 183.359375 202.90625 182.886719 202.5625 182.375 C 202.222656 181.863281 201.933594 181.324219 201.699219 180.753906 C 201.460938 180.1875 201.285156 179.601562 201.164062 178.996094 C 201.042969 178.390625 200.984375 177.78125 200.984375 177.167969 C 200.984375 176.550781 201.042969 175.941406 201.164062 175.339844 C 201.285156 174.734375 201.460938 174.148438 201.699219 173.578125 C 201.933594 173.011719 202.222656 172.46875 202.5625 171.957031 C 202.90625 171.445312 203.292969 170.972656 203.730469 170.539062 C 204.164062 170.101562 204.640625 169.714844 205.152344 169.371094 C 205.664062 169.03125 206.203125 168.742188 206.769531 168.503906 C 207.339844 168.269531 207.925781 168.09375 208.53125 167.972656 C 209.132812 167.851562 209.742188 167.792969 210.359375 167.792969 L 333.996094 167.792969 C 334.613281 167.792969 335.222656 167.851562 335.824219 167.972656 C 336.429688 168.09375 337.015625 168.269531 337.582031 168.503906 C 338.152344 168.742188 338.691406 169.03125 339.203125 169.371094 C 339.714844 169.714844 340.191406 170.101562 340.625 170.539062 C 341.058594 170.972656 341.449219 171.445312 341.789062 171.957031 C 342.132812 172.46875 342.421875 173.011719 342.65625 173.578125 C 342.890625 174.148438 343.070312 174.734375 343.191406 175.339844 C 343.308594 175.941406 343.371094 176.550781 343.371094 177.167969 C 343.371094 177.78125 343.308594 178.390625 343.191406 178.996094 C 343.070312 179.601562 342.890625 180.1875 342.65625 180.753906 C 342.421875 181.324219 342.132812 181.863281 341.789062 182.375 C 341.449219 182.886719 341.058594 183.359375 340.625 183.796875 C 340.191406 184.230469 339.714844 184.621094 339.203125 184.960938 C 338.691406 185.304688 338.152344 185.59375 337.582031 185.828125 C 337.015625 186.0625 336.429688 186.242188 335.824219 186.363281 C 335.222656 186.480469 334.613281 186.542969 333.996094 186.542969 Z M 210.359375 168.683594 C 209.800781 168.683594 209.25 168.738281 208.703125 168.847656 C 208.15625 168.957031 207.628906 169.117188 207.113281 169.332031 C 206.597656 169.542969 206.109375 169.804688 205.644531 170.113281 C 205.183594 170.425781 204.753906 170.777344 204.363281 171.167969 C 203.96875 171.5625 203.617188 171.992188 203.308594 172.453125 C 202.996094 172.917969 202.734375 173.40625 202.523438 173.921875 C 202.308594 174.4375 202.148438 174.964844 202.039062 175.511719 C 201.933594 176.058594 201.878906 176.609375 201.878906 177.167969 C 201.878906 177.722656 201.933594 178.277344 202.039062 178.820312 C 202.148438 179.367188 202.308594 179.898438 202.523438 180.414062 C 202.734375 180.929688 202.996094 181.417969 203.308594 181.878906 C 203.617188 182.34375 203.96875 182.769531 204.363281 183.164062 C 204.753906 183.558594 205.183594 183.910156 205.648438 184.21875 C 206.109375 184.527344 206.597656 184.789062 207.113281 185.003906 C 207.628906 185.21875 208.15625 185.378906 208.703125 185.488281 C 209.25 185.59375 209.800781 185.648438 210.359375 185.648438 L 333.996094 185.648438 C 334.554688 185.648438 335.105469 185.59375 335.652344 185.488281 C 336.199219 185.378906 336.726562 185.21875 337.242188 185.003906 C 337.757812 184.789062 338.246094 184.53125 338.707031 184.21875 C 339.171875 183.910156 339.601562 183.558594 339.992188 183.164062 C 340.386719 182.769531 340.738281 182.34375 341.046875 181.878906 C 341.359375 181.417969 341.617188 180.929688 341.832031 180.414062 C 342.046875 179.898438 342.207031 179.367188 342.316406 178.820312 C 342.421875 178.277344 342.476562 177.722656 342.476562 177.167969 C 342.476562 176.609375 342.421875 176.058594 342.316406 175.511719 C 342.207031 174.964844 342.046875 174.4375 341.832031 173.921875 C 341.617188 173.40625 341.359375 172.917969 341.046875 172.453125 C 340.738281 171.992188 340.386719 171.5625 339.992188 171.167969 C 339.601562 170.777344 339.171875 170.425781 338.707031 170.113281 C 338.246094 169.804688 337.757812 169.542969 337.242188 169.332031 C 336.726562 169.117188 336.199219 168.957031 335.652344 168.847656 C 335.105469 168.738281 334.554688 168.683594 333.996094 168.683594 Z M 210.359375 168.683594 " fill-opacity="1" fill-rule="nonzero"/></g></svg>