<svg xmlns="http://www.w3.org/2000/svg" xmlns:xlink="http://www.w3.org/1999/xlink" width="1000" zoomAndPan="magnify" viewBox="0 0 750 749.999995" height="1000" preserveAspectRatio="xMidYMid meet" version="1.0"><rect x="-75" width="900" fill="#ffffff" y="-74.999999" height="899.999994" fill-opacity="1"/><rect x="-75" width="900" fill="#ffffff" y="-74.999999" height="899.999994" fill-opacity="1"/><path fill="#3b82f6" d="M 577.648438 676.933594 C 574.953125 676.929688 572.320312 676.535156 569.742188 675.746094 L 19.339844 507.710938 C 18.492188 507.449219 17.65625 507.148438 16.835938 506.804688 C 16.015625 506.464844 15.214844 506.082031 14.433594 505.660156 C 13.652344 505.238281 12.890625 504.78125 12.15625 504.285156 C 11.417969 503.792969 10.707031 503.261719 10.019531 502.695312 C 9.335938 502.128906 8.679688 501.53125 8.050781 500.902344 C 7.425781 500.273438 6.832031 499.613281 6.269531 498.925781 C 5.707031 498.238281 5.179688 497.527344 4.6875 496.785156 C 4.195312 496.046875 3.742188 495.285156 3.324219 494.5 C 2.90625 493.714844 2.527344 492.914062 2.191406 492.089844 C 1.851562 491.269531 1.554688 490.433594 1.296875 489.582031 C 1.039062 488.734375 0.824219 487.871094 0.652344 487 C 0.480469 486.128906 0.351562 485.25 0.265625 484.367188 C 0.179688 483.480469 0.136719 482.59375 0.136719 481.707031 C 0.140625 480.816406 0.183594 479.933594 0.269531 479.046875 C 0.359375 478.164062 0.488281 477.285156 0.664062 476.414062 C 0.839844 475.542969 1.054688 474.683594 1.3125 473.832031 L 140.019531 19.21875 C 140.28125 18.371094 140.582031 17.535156 140.925781 16.714844 C 141.265625 15.894531 141.648438 15.09375 142.070312 14.3125 C 142.488281 13.527344 142.949219 12.769531 143.441406 12.03125 C 143.9375 11.292969 144.46875 10.582031 145.035156 9.894531 C 145.597656 9.210938 146.195312 8.554688 146.824219 7.925781 C 147.453125 7.300781 148.113281 6.707031 148.800781 6.144531 C 149.488281 5.582031 150.203125 5.054688 150.941406 4.5625 C 151.679688 4.070312 152.441406 3.613281 153.226562 3.195312 C 154.011719 2.777344 154.8125 2.402344 155.632812 2.0625 C 156.457031 1.722656 157.292969 1.425781 158.140625 1.167969 C 158.992188 0.914062 159.851562 0.699219 160.722656 0.527344 C 161.597656 0.351562 162.472656 0.222656 163.359375 0.136719 C 164.242188 0.0507812 165.128906 0.0078125 166.015625 0.0117188 C 166.90625 0.0117188 167.789062 0.0546875 168.675781 0.144531 C 169.558594 0.230469 170.4375 0.363281 171.308594 0.535156 C 172.179688 0.710938 173.039062 0.925781 173.886719 1.183594 L 724.292969 169.222656 C 725.140625 169.484375 725.976562 169.785156 726.792969 170.125 C 727.613281 170.46875 728.414062 170.851562 729.199219 171.269531 C 729.980469 171.691406 730.738281 172.148438 731.476562 172.644531 C 732.214844 173.140625 732.925781 173.671875 733.613281 174.234375 C 734.296875 174.800781 734.953125 175.398438 735.578125 176.027344 C 736.207031 176.65625 736.800781 177.316406 737.363281 178.003906 C 737.925781 178.691406 738.453125 179.40625 738.945312 180.144531 C 739.4375 180.886719 739.890625 181.648438 740.308594 182.433594 C 740.726562 183.214844 741.105469 184.019531 741.441406 184.839844 C 741.78125 185.664062 742.078125 186.5 742.335938 187.347656 C 742.59375 188.199219 742.804688 189.0625 742.980469 189.933594 C 743.152344 190.804688 743.28125 191.683594 743.367188 192.566406 C 743.453125 193.449219 743.496094 194.335938 743.492188 195.226562 C 743.492188 196.113281 743.449219 197 743.359375 197.882812 C 743.273438 198.769531 743.140625 199.644531 742.96875 200.519531 C 742.792969 201.390625 742.578125 202.25 742.320312 203.101562 L 603.609375 657.714844 C 603.1875 659.09375 602.65625 660.433594 602.019531 661.730469 C 601.382812 663.027344 600.648438 664.265625 599.816406 665.445312 C 598.980469 666.625 598.058594 667.730469 597.050781 668.761719 C 596.039062 669.792969 594.953125 670.738281 593.792969 671.597656 C 592.632812 672.457031 591.410156 673.21875 590.128906 673.882812 C 588.847656 674.546875 587.519531 675.109375 586.148438 675.558594 C 584.777344 676.011719 583.378906 676.355469 581.953125 676.585938 C 580.527344 676.816406 579.09375 676.929688 577.648438 676.933594 Z M 577.648438 676.933594 " fill-opacity="1" fill-rule="nonzero"/><path fill="#3f3d56" d="M 659.613281 604.0625 L 84.148438 604.0625 C 83.230469 604.0625 82.320312 604.015625 81.410156 603.925781 C 80.496094 603.835938 79.59375 603.703125 78.695312 603.523438 C 77.796875 603.34375 76.914062 603.121094 76.035156 602.851562 C 75.160156 602.585938 74.300781 602.277344 73.457031 601.925781 C 72.609375 601.578125 71.785156 601.183594 70.976562 600.753906 C 70.171875 600.320312 69.386719 599.851562 68.625 599.34375 C 67.863281 598.832031 67.128906 598.289062 66.421875 597.707031 C 65.714844 597.128906 65.039062 596.511719 64.390625 595.867188 C 63.746094 595.21875 63.128906 594.542969 62.550781 593.832031 C 61.96875 593.125 61.425781 592.390625 60.914062 591.632812 C 60.40625 590.871094 59.9375 590.085938 59.503906 589.277344 C 59.074219 588.472656 58.683594 587.644531 58.332031 586.800781 C 57.980469 585.953125 57.671875 585.09375 57.40625 584.21875 C 57.140625 583.339844 56.917969 582.453125 56.738281 581.558594 C 56.558594 580.660156 56.421875 579.753906 56.332031 578.84375 C 56.242188 577.933594 56.195312 577.019531 56.195312 576.105469 L 56.195312 100.789062 C 56.195312 99.875 56.242188 98.960938 56.332031 98.050781 C 56.421875 97.136719 56.558594 96.234375 56.738281 95.335938 C 56.917969 94.4375 57.140625 93.550781 57.40625 92.675781 C 57.671875 91.800781 57.980469 90.9375 58.332031 90.09375 C 58.683594 89.25 59.074219 88.421875 59.503906 87.613281 C 59.9375 86.808594 60.40625 86.023438 60.914062 85.261719 C 61.425781 84.5 61.96875 83.765625 62.550781 83.058594 C 63.128906 82.351562 63.746094 81.675781 64.390625 81.027344 C 65.039062 80.378906 65.714844 79.765625 66.421875 79.183594 C 67.128906 78.605469 67.863281 78.058594 68.625 77.550781 C 69.386719 77.042969 70.171875 76.570312 70.976562 76.140625 C 71.785156 75.707031 72.609375 75.316406 73.457031 74.964844 C 74.300781 74.613281 75.160156 74.304688 76.035156 74.039062 C 76.914062 73.773438 77.796875 73.550781 78.695312 73.371094 C 79.59375 73.191406 80.496094 73.058594 81.410156 72.964844 C 82.320312 72.875 83.230469 72.828125 84.148438 72.828125 L 659.613281 72.828125 C 660.53125 72.828125 661.441406 72.875 662.351562 72.964844 C 663.265625 73.058594 664.167969 73.191406 665.066406 73.371094 C 665.964844 73.550781 666.847656 73.773438 667.726562 74.039062 C 668.601562 74.304688 669.460938 74.613281 670.304688 74.964844 C 671.152344 75.316406 671.976562 75.707031 672.785156 76.140625 C 673.589844 76.570312 674.375 77.042969 675.136719 77.550781 C 675.898438 78.058594 676.632812 78.605469 677.339844 79.183594 C 678.046875 79.765625 678.722656 80.378906 679.371094 81.027344 C 680.015625 81.675781 680.632812 82.351562 681.210938 83.058594 C 681.792969 83.765625 682.335938 84.5 682.84375 85.261719 C 683.355469 86.023438 683.824219 86.808594 684.257812 87.613281 C 684.6875 88.421875 685.078125 89.25 685.429688 90.09375 C 685.78125 90.9375 686.089844 91.800781 686.355469 92.675781 C 686.621094 93.550781 686.84375 94.4375 687.023438 95.335938 C 687.203125 96.234375 687.339844 97.136719 687.429688 98.050781 C 687.519531 98.960938 687.566406 99.875 687.566406 100.789062 L 687.566406 576.105469 C 687.566406 577.019531 687.519531 577.933594 687.429688 578.84375 C 687.339844 579.753906 687.203125 580.660156 687.023438 581.558594 C 686.84375 582.453125 686.621094 583.339844 686.355469 584.21875 C 686.089844 585.09375 685.78125 585.953125 685.429688 586.800781 C 685.078125 587.644531 684.6875 588.472656 684.257812 589.277344 C 683.824219 590.085938 683.355469 590.871094 682.847656 591.632812 C 682.335938 592.390625 681.792969 593.125 681.210938 593.832031 C 680.632812 594.542969 680.015625 595.21875 679.371094 595.867188 C 678.722656 596.511719 678.046875 597.128906 677.339844 597.707031 C 676.632812 598.289062 675.898438 598.832031 675.136719 599.34375 C 674.375 599.851562 673.589844 600.320312 672.785156 600.753906 C 671.976562 601.1875 671.152344 601.578125 670.304688 601.929688 C 669.460938 602.277344 668.601562 602.585938 667.726562 602.855469 C 666.847656 603.121094 665.964844 603.34375 665.066406 603.523438 C 664.167969 603.703125 663.265625 603.835938 662.351562 603.925781 C 661.441406 604.019531 660.53125 604.0625 659.613281 604.0625 Z M 84.148438 76.117188 C 83.339844 76.121094 82.535156 76.160156 81.730469 76.238281 C 80.925781 76.320312 80.128906 76.4375 79.335938 76.597656 C 78.546875 76.753906 77.761719 76.953125 76.992188 77.1875 C 76.21875 77.421875 75.460938 77.695312 74.714844 78.003906 C 73.96875 78.3125 73.238281 78.660156 72.527344 79.039062 C 71.816406 79.421875 71.121094 79.835938 70.453125 80.285156 C 69.78125 80.734375 69.132812 81.214844 68.507812 81.726562 C 67.882812 82.238281 67.285156 82.78125 66.714844 83.351562 C 66.144531 83.921875 65.601562 84.519531 65.089844 85.144531 C 64.578125 85.769531 64.097656 86.417969 63.648438 87.089844 C 63.199219 87.761719 62.785156 88.453125 62.40625 89.164062 C 62.023438 89.875 61.679688 90.605469 61.367188 91.351562 C 61.058594 92.097656 60.789062 92.859375 60.550781 93.628906 C 60.316406 94.402344 60.121094 95.1875 59.960938 95.976562 C 59.804688 96.769531 59.683594 97.566406 59.605469 98.371094 C 59.527344 99.175781 59.484375 99.980469 59.484375 100.789062 L 59.484375 576.105469 C 59.484375 576.914062 59.527344 577.71875 59.605469 578.523438 C 59.683594 579.324219 59.804688 580.125 59.960938 580.914062 C 60.121094 581.707031 60.316406 582.488281 60.550781 583.261719 C 60.789062 584.035156 61.058594 584.796875 61.367188 585.542969 C 61.679688 586.289062 62.023438 587.015625 62.40625 587.730469 C 62.785156 588.441406 63.199219 589.132812 63.648438 589.804688 C 64.097656 590.476562 64.578125 591.125 65.089844 591.746094 C 65.601562 592.371094 66.144531 592.96875 66.714844 593.542969 C 67.285156 594.113281 67.882812 594.652344 68.507812 595.167969 C 69.132812 595.679688 69.78125 596.160156 70.453125 596.609375 C 71.121094 597.058594 71.816406 597.472656 72.527344 597.855469 C 73.238281 598.234375 73.96875 598.582031 74.714844 598.890625 C 75.460938 599.199219 76.21875 599.472656 76.992188 599.707031 C 77.761719 599.941406 78.546875 600.136719 79.335938 600.296875 C 80.128906 600.453125 80.925781 600.574219 81.730469 600.652344 C 82.535156 600.734375 83.339844 600.773438 84.148438 600.773438 L 659.613281 600.773438 C 660.421875 600.773438 661.226562 600.734375 662.03125 600.652344 C 662.835938 600.574219 663.632812 600.453125 664.425781 600.296875 C 665.214844 600.136719 666 599.941406 666.769531 599.707031 C 667.542969 599.472656 668.300781 599.199219 669.046875 598.890625 C 669.792969 598.582031 670.523438 598.234375 671.234375 597.855469 C 671.945312 597.472656 672.640625 597.058594 673.308594 596.609375 C 673.980469 596.160156 674.628906 595.679688 675.253906 595.167969 C 675.878906 594.652344 676.476562 594.113281 677.046875 593.542969 C 677.617188 592.96875 678.160156 592.371094 678.671875 591.746094 C 679.183594 591.125 679.664062 590.476562 680.113281 589.804688 C 680.5625 589.132812 680.976562 588.441406 681.355469 587.730469 C 681.738281 587.015625 682.082031 586.289062 682.394531 585.542969 C 682.703125 584.796875 682.972656 584.035156 683.210938 583.261719 C 683.445312 582.488281 683.640625 581.707031 683.800781 580.914062 C 683.957031 580.125 684.078125 579.324219 684.15625 578.523438 C 684.238281 577.71875 684.277344 576.914062 684.277344 576.105469 L 684.277344 100.789062 C 684.277344 99.980469 684.238281 99.175781 684.15625 98.371094 C 684.078125 97.566406 683.957031 96.769531 683.800781 95.976562 C 683.640625 95.183594 683.445312 94.402344 683.210938 93.628906 C 682.972656 92.859375 682.703125 92.097656 682.394531 91.351562 C 682.082031 90.605469 681.738281 89.875 681.355469 89.164062 C 680.976562 88.453125 680.5625 87.761719 680.113281 87.089844 C 679.664062 86.417969 679.183594 85.769531 678.671875 85.144531 C 678.160156 84.519531 677.617188 83.921875 677.046875 83.351562 C 676.476562 82.78125 675.878906 82.238281 675.253906 81.726562 C 674.628906 81.214844 673.980469 80.734375 673.308594 80.285156 C 672.640625 79.835938 671.945312 79.421875 671.234375 79.039062 C 670.523438 78.660156 669.792969 78.3125 669.046875 78.003906 C 668.304688 77.695312 667.542969 77.421875 666.769531 77.1875 C 666 76.953125 665.214844 76.753906 664.425781 76.597656 C 663.632812 76.4375 662.835938 76.320312 662.03125 76.238281 C 661.226562 76.160156 660.421875 76.121094 659.613281 76.117188 Z M 84.148438 76.117188 " fill-opacity="1" fill-rule="nonzero"/><path fill="#ffffff" d="M 371.878906 548.144531 C 371.664062 548.144531 371.453125 548.101562 371.25 548.019531 C 371.050781 547.9375 370.871094 547.816406 370.71875 547.664062 C 370.5625 547.507812 370.445312 547.332031 370.363281 547.128906 C 370.277344 546.929688 370.238281 546.71875 370.238281 546.5 L 370.238281 225.785156 C 370.238281 225.566406 370.277344 225.355469 370.363281 225.15625 C 370.445312 224.953125 370.5625 224.777344 370.71875 224.621094 C 370.871094 224.46875 371.050781 224.347656 371.25 224.265625 C 371.453125 224.183594 371.664062 224.140625 371.878906 224.140625 C 372.097656 224.140625 372.308594 224.183594 372.511719 224.265625 C 372.710938 224.347656 372.890625 224.46875 373.042969 224.621094 C 373.199219 224.777344 373.316406 224.953125 373.398438 225.15625 C 373.484375 225.355469 373.523438 225.566406 373.523438 225.785156 L 373.523438 546.5 C 373.523438 546.71875 373.484375 546.929688 373.398438 547.128906 C 373.316406 547.332031 373.199219 547.507812 373.042969 547.664062 C 372.890625 547.816406 372.710938 547.9375 372.511719 548.019531 C 372.308594 548.101562 372.097656 548.144531 371.878906 548.144531 Z M 371.878906 548.144531 " fill-opacity="1" fill-rule="nonzero"/><path fill="#ffffff" d="M 371.882812 471.347656 C 371.5 471.351562 371.15625 471.230469 370.855469 470.992188 C 370.558594 470.753906 370.363281 470.445312 370.277344 470.074219 C 370.191406 469.699219 370.234375 469.339844 370.398438 468.992188 C 370.5625 468.648438 370.820312 468.390625 371.164062 468.226562 L 545.449219 383.839844 C 545.644531 383.746094 545.851562 383.691406 546.070312 383.679688 C 546.289062 383.664062 546.5 383.695312 546.703125 383.765625 C 546.910156 383.839844 547.09375 383.945312 547.257812 384.089844 C 547.421875 384.238281 547.550781 384.40625 547.644531 384.605469 C 547.738281 384.800781 547.792969 385.007812 547.804688 385.222656 C 547.820312 385.441406 547.789062 385.652344 547.71875 385.859375 C 547.648438 386.066406 547.539062 386.25 547.394531 386.414062 C 547.25 386.578125 547.078125 386.707031 546.882812 386.800781 L 372.597656 471.183594 C 372.371094 471.292969 372.132812 471.351562 371.882812 471.347656 Z M 371.882812 471.347656 " fill-opacity="1" fill-rule="nonzero"/><path fill="#ffffff" d="M 371.882812 386.964844 C 371.503906 386.964844 371.167969 386.847656 370.871094 386.617188 C 370.574219 386.386719 370.378906 386.085938 370.285156 385.722656 C 370.195312 385.355469 370.226562 385 370.378906 384.65625 C 370.53125 384.308594 370.773438 384.046875 371.105469 383.871094 L 487.84375 321.371094 C 488.035156 321.269531 488.238281 321.207031 488.457031 321.183594 C 488.671875 321.164062 488.886719 321.183594 489.09375 321.246094 C 489.304688 321.3125 489.492188 321.410156 489.660156 321.550781 C 489.828125 321.6875 489.964844 321.855469 490.070312 322.046875 C 490.171875 322.238281 490.234375 322.441406 490.253906 322.660156 C 490.277344 322.878906 490.253906 323.089844 490.191406 323.300781 C 490.128906 323.507812 490.027344 323.695312 489.890625 323.863281 C 489.753906 324.035156 489.585938 324.167969 489.394531 324.273438 L 372.65625 386.769531 C 372.414062 386.898438 372.15625 386.964844 371.882812 386.964844 Z M 371.882812 386.964844 " fill-opacity="1" fill-rule="nonzero"/><path fill="#ffffff" d="M 371.882812 293.257812 C 371.507812 293.257812 371.171875 293.140625 370.875 292.910156 C 370.578125 292.679688 370.382812 292.382812 370.289062 292.019531 C 370.195312 291.65625 370.222656 291.300781 370.371094 290.957031 C 370.523438 290.613281 370.761719 290.351562 371.089844 290.167969 L 440.148438 252.300781 C 440.335938 252.199219 440.542969 252.132812 440.757812 252.113281 C 440.972656 252.089844 441.1875 252.105469 441.394531 252.167969 C 441.605469 252.230469 441.792969 252.328125 441.964844 252.464844 C 442.132812 252.601562 442.269531 252.765625 442.375 252.957031 C 442.480469 253.148438 442.542969 253.351562 442.566406 253.566406 C 442.59375 253.785156 442.574219 253.996094 442.511719 254.207031 C 442.453125 254.414062 442.355469 254.605469 442.21875 254.773438 C 442.082031 254.945312 441.917969 255.082031 441.726562 255.1875 L 372.671875 293.054688 C 372.425781 293.1875 372.164062 293.257812 371.882812 293.257812 Z M 371.882812 293.257812 " fill-opacity="1" fill-rule="nonzero"/><path fill="#ffffff" d="M 371.878906 471.347656 C 371.628906 471.351562 371.390625 471.292969 371.164062 471.183594 L 196.878906 386.800781 C 196.683594 386.707031 196.511719 386.578125 196.367188 386.414062 C 196.222656 386.25 196.113281 386.066406 196.042969 385.859375 C 195.972656 385.65625 195.941406 385.441406 195.957031 385.226562 C 195.96875 385.007812 196.023438 384.800781 196.117188 384.605469 C 196.210938 384.40625 196.339844 384.238281 196.503906 384.09375 C 196.667969 383.945312 196.851562 383.839844 197.054688 383.765625 C 197.261719 383.695312 197.472656 383.667969 197.691406 383.679688 C 197.910156 383.691406 198.117188 383.746094 198.3125 383.839844 L 372.597656 468.226562 C 372.941406 468.390625 373.199219 468.648438 373.363281 468.992188 C 373.527344 469.339844 373.570312 469.699219 373.484375 470.074219 C 373.398438 470.445312 373.203125 470.753906 372.90625 470.992188 C 372.605469 471.230469 372.261719 471.351562 371.878906 471.347656 Z M 371.878906 471.347656 " fill-opacity="1" fill-rule="nonzero"/><path fill="#ffffff" d="M 371.878906 386.964844 C 371.605469 386.964844 371.347656 386.898438 371.105469 386.769531 L 254.367188 324.273438 C 254.175781 324.167969 254.011719 324.03125 253.875 323.863281 C 253.734375 323.695312 253.636719 323.507812 253.574219 323.300781 C 253.511719 323.089844 253.488281 322.878906 253.511719 322.660156 C 253.53125 322.445312 253.59375 322.238281 253.699219 322.046875 C 253.800781 321.855469 253.9375 321.691406 254.105469 321.554688 C 254.273438 321.414062 254.460938 321.3125 254.667969 321.25 C 254.875 321.1875 255.089844 321.167969 255.304688 321.1875 C 255.523438 321.207031 255.726562 321.269531 255.917969 321.371094 L 372.65625 383.871094 C 372.988281 384.046875 373.230469 384.308594 373.382812 384.65625 C 373.535156 385 373.566406 385.355469 373.476562 385.722656 C 373.382812 386.085938 373.1875 386.386719 372.890625 386.617188 C 372.59375 386.847656 372.257812 386.964844 371.878906 386.964844 Z M 371.878906 386.964844 " fill-opacity="1" fill-rule="nonzero"/><path fill="#ffffff" d="M 371.878906 293.257812 C 371.597656 293.257812 371.335938 293.1875 371.089844 293.054688 L 302.035156 255.1875 C 301.84375 255.082031 301.679688 254.945312 301.542969 254.773438 C 301.40625 254.605469 301.308594 254.414062 301.25 254.207031 C 301.1875 253.996094 301.167969 253.785156 301.195312 253.566406 C 301.21875 253.351562 301.28125 253.148438 301.386719 252.957031 C 301.492188 252.765625 301.628906 252.601562 301.796875 252.464844 C 301.96875 252.328125 302.15625 252.230469 302.367188 252.167969 C 302.574219 252.105469 302.789062 252.089844 303.003906 252.113281 C 303.21875 252.132812 303.425781 252.199219 303.613281 252.304688 L 372.671875 290.167969 C 373 290.351562 373.238281 290.613281 373.390625 290.957031 C 373.539062 291.300781 373.566406 291.65625 373.472656 292.019531 C 373.378906 292.382812 373.183594 292.679688 372.886719 292.910156 C 372.589844 293.140625 372.253906 293.257812 371.878906 293.257812 Z M 371.878906 293.257812 " fill-opacity="1" fill-rule="nonzero"/><path fill="#3f3d56" d="M 399.832031 603.242188 L 343.929688 603.242188 C 343.226562 603.242188 342.535156 603.171875 341.84375 603.035156 C 341.15625 602.898438 340.488281 602.695312 339.839844 602.425781 C 339.195312 602.15625 338.578125 601.828125 337.996094 601.4375 C 337.410156 601.046875 336.871094 600.605469 336.375 600.105469 C 335.878906 599.609375 335.4375 599.070312 335.046875 598.488281 C 334.65625 597.90625 334.328125 597.289062 334.058594 596.640625 C 333.789062 595.992188 333.585938 595.324219 333.449219 594.636719 C 333.3125 593.949219 333.242188 593.253906 333.242188 592.550781 L 333.242188 556.367188 C 333.242188 555.667969 333.3125 554.972656 333.449219 554.285156 C 333.585938 553.59375 333.789062 552.925781 334.058594 552.277344 C 334.328125 551.632812 334.65625 551.015625 335.046875 550.433594 C 335.4375 549.847656 335.878906 549.308594 336.375 548.8125 C 336.871094 548.316406 337.410156 547.875 337.996094 547.484375 C 338.578125 547.09375 339.195312 546.765625 339.839844 546.496094 C 340.488281 546.226562 341.15625 546.023438 341.84375 545.886719 C 342.535156 545.746094 343.226562 545.679688 343.929688 545.679688 L 399.832031 545.679688 C 400.535156 545.679688 401.226562 545.746094 401.917969 545.886719 C 402.605469 546.023438 403.273438 546.226562 403.921875 546.496094 C 404.566406 546.765625 405.183594 547.09375 405.765625 547.484375 C 406.351562 547.875 406.890625 548.316406 407.386719 548.8125 C 407.882812 549.308594 408.324219 549.847656 408.714844 550.433594 C 409.105469 551.015625 409.433594 551.632812 409.703125 552.277344 C 409.972656 552.925781 410.175781 553.59375 410.3125 554.285156 C 410.449219 554.972656 410.519531 555.667969 410.519531 556.367188 L 410.519531 592.550781 C 410.519531 593.253906 410.449219 593.949219 410.3125 594.636719 C 410.175781 595.324219 409.972656 595.992188 409.703125 596.640625 C 409.433594 597.289062 409.105469 597.90625 408.714844 598.488281 C 408.324219 599.070312 407.882812 599.609375 407.386719 600.105469 C 406.890625 600.605469 406.351562 601.046875 405.765625 601.4375 C 405.183594 601.828125 404.566406 602.15625 403.921875 602.425781 C 403.273438 602.695312 402.605469 602.898438 401.917969 603.035156 C 401.226562 603.171875 400.535156 603.242188 399.832031 603.242188 Z M 399.832031 603.242188 " fill-opacity="1" fill-rule="nonzero"/><path fill="#ff6584" d="M 82.703125 170.824219 C 82.703125 171.613281 82.664062 172.398438 82.585938 173.183594 C 82.507812 173.96875 82.394531 174.746094 82.242188 175.519531 C 82.085938 176.292969 81.894531 177.054688 81.667969 177.808594 C 81.4375 178.566406 81.171875 179.304688 80.871094 180.035156 C 80.570312 180.761719 80.234375 181.472656 79.863281 182.167969 C 79.492188 182.863281 79.085938 183.539062 78.648438 184.195312 C 78.210938 184.851562 77.742188 185.484375 77.242188 186.09375 C 76.742188 186.703125 76.214844 187.285156 75.65625 187.84375 C 75.097656 188.398438 74.515625 188.929688 73.90625 189.429688 C 73.296875 189.929688 72.664062 190.398438 72.011719 190.835938 C 71.355469 191.273438 70.679688 191.679688 69.984375 192.050781 C 69.289062 192.421875 68.578125 192.757812 67.851562 193.058594 C 67.121094 193.359375 66.382812 193.625 65.628906 193.855469 C 64.875 194.082031 64.109375 194.273438 63.335938 194.429688 C 62.5625 194.582031 61.785156 194.699219 61 194.773438 C 60.21875 194.851562 59.429688 194.890625 58.644531 194.890625 C 57.855469 194.890625 57.070312 194.851562 56.285156 194.773438 C 55.5 194.699219 54.722656 194.582031 53.949219 194.429688 C 53.175781 194.273438 52.414062 194.082031 51.660156 193.855469 C 50.90625 193.625 50.164062 193.359375 49.4375 193.058594 C 48.707031 192.757812 47.996094 192.421875 47.300781 192.050781 C 46.605469 191.679688 45.933594 191.273438 45.277344 190.835938 C 44.621094 190.398438 43.988281 189.929688 43.378906 189.429688 C 42.769531 188.929688 42.1875 188.398438 41.628906 187.84375 C 41.074219 187.285156 40.546875 186.703125 40.046875 186.09375 C 39.546875 185.484375 39.078125 184.851562 38.636719 184.195312 C 38.199219 183.539062 37.796875 182.863281 37.425781 182.167969 C 37.054688 181.472656 36.714844 180.761719 36.414062 180.035156 C 36.113281 179.304688 35.847656 178.566406 35.621094 177.808594 C 35.390625 177.054688 35.199219 176.292969 35.046875 175.519531 C 34.890625 174.746094 34.777344 173.96875 34.699219 173.183594 C 34.621094 172.398438 34.582031 171.613281 34.582031 170.824219 C 34.582031 170.035156 34.621094 169.25 34.699219 168.464844 C 34.777344 167.679688 34.890625 166.902344 35.046875 166.128906 C 35.199219 165.355469 35.390625 164.59375 35.621094 163.839844 C 35.847656 163.082031 36.113281 162.34375 36.414062 161.613281 C 36.714844 160.886719 37.054688 160.175781 37.425781 159.480469 C 37.796875 158.785156 38.199219 158.109375 38.636719 157.453125 C 39.078125 156.796875 39.546875 156.164062 40.046875 155.554688 C 40.546875 154.945312 41.074219 154.363281 41.628906 153.804688 C 42.1875 153.25 42.769531 152.71875 43.378906 152.21875 C 43.988281 151.71875 44.621094 151.25 45.277344 150.8125 C 45.933594 150.375 46.605469 149.972656 47.300781 149.597656 C 47.996094 149.226562 48.707031 148.890625 49.4375 148.589844 C 50.164062 148.289062 50.90625 148.023438 51.660156 147.792969 C 52.414062 147.566406 53.175781 147.375 53.949219 147.21875 C 54.722656 147.066406 55.5 146.949219 56.285156 146.875 C 57.070312 146.796875 57.855469 146.757812 58.644531 146.757812 C 59.429688 146.757812 60.21875 146.796875 61 146.875 C 61.785156 146.949219 62.5625 147.066406 63.335938 147.21875 C 64.109375 147.375 64.875 147.566406 65.628906 147.792969 C 66.382812 148.023438 67.121094 148.289062 67.851562 148.589844 C 68.578125 148.890625 69.289062 149.226562 69.984375 149.597656 C 70.679688 149.972656 71.355469 150.375 72.011719 150.8125 C 72.664062 151.25 73.296875 151.71875 73.90625 152.21875 C 74.515625 152.71875 75.097656 153.25 75.65625 153.804688 C 76.214844 154.363281 76.742188 154.945312 77.242188 155.554688 C 77.742188 156.164062 78.210938 156.796875 78.648438 157.453125 C 79.085938 158.109375 79.492188 158.785156 79.863281 159.480469 C 80.234375 160.175781 80.570312 160.886719 80.871094 161.613281 C 81.171875 162.34375 81.4375 163.082031 81.667969 163.839844 C 81.894531 164.59375 82.085938 165.355469 82.242188 166.128906 C 82.394531 166.902344 82.507812 167.679688 82.585938 168.464844 C 82.664062 169.25 82.703125 170.035156 82.703125 170.824219 Z M 82.703125 170.824219 " fill-opacity="1" fill-rule="nonzero"/><path fill="#3f3d56" d="M 710.636719 82.585938 C 710.636719 83.511719 710.609375 84.417969 710.53125 85.316406 C 710.480469 86.007812 710.410156 86.695312 710.320312 87.382812 C 710.234375 88.070312 710.125 88.753906 709.996094 89.4375 C 709.871094 90.117188 709.726562 90.796875 709.5625 91.46875 C 709.398438 92.144531 709.214844 92.8125 709.011719 93.472656 C 708.8125 94.136719 708.589844 94.792969 708.355469 95.445312 C 708.117188 96.097656 707.859375 96.742188 707.585938 97.378906 C 707.3125 98.015625 707.019531 98.644531 706.710938 99.265625 C 706.402344 99.882812 706.078125 100.496094 705.734375 101.097656 C 705.394531 101.703125 705.035156 102.292969 704.660156 102.875 C 704.28125 103.460938 703.890625 104.03125 703.484375 104.589844 C 703.078125 105.152344 702.65625 105.703125 702.21875 106.238281 C 701.777344 106.777344 701.328125 107.300781 700.859375 107.8125 C 700.394531 108.324219 699.914062 108.824219 699.417969 109.308594 C 698.921875 109.796875 698.414062 110.265625 697.894531 110.722656 C 697.375 111.183594 696.839844 111.625 696.296875 112.050781 C 695.75 112.480469 695.191406 112.890625 694.625 113.289062 C 694.054688 113.683594 693.476562 114.066406 692.886719 114.429688 C 692.300781 114.796875 691.699219 115.144531 691.089844 115.472656 C 690.480469 115.804688 689.863281 116.121094 689.238281 116.417969 C 688.613281 116.714844 687.980469 116.992188 687.335938 117.253906 C 686.695312 117.515625 686.046875 117.761719 685.390625 117.984375 C 684.734375 118.210938 684.074219 118.417969 683.410156 118.609375 C 682.742188 118.796875 682.070312 118.96875 681.394531 119.117188 C 680.71875 119.269531 680.039062 119.402344 679.355469 119.515625 C 678.671875 119.632812 677.984375 119.726562 677.296875 119.800781 C 676.605469 119.878906 675.917969 119.933594 675.222656 119.972656 C 674.53125 120.007812 673.839844 120.027344 673.148438 120.027344 C 672.453125 120.023438 671.761719 120.003906 671.070312 119.964844 C 670.378906 119.925781 669.6875 119.867188 669 119.789062 C 668.308594 119.710938 667.625 119.613281 666.941406 119.496094 C 666.257812 119.378906 665.578125 119.246094 664.902344 119.09375 C 664.226562 118.9375 663.554688 118.765625 662.890625 118.574219 C 662.222656 118.382812 661.5625 118.175781 660.910156 117.945312 C 660.253906 117.71875 659.605469 117.472656 658.964844 117.207031 C 658.324219 116.945312 657.691406 116.664062 657.066406 116.363281 C 656.441406 116.066406 655.824219 115.75 655.21875 115.417969 C 654.609375 115.082031 654.011719 114.734375 653.421875 114.367188 C 652.835938 114 652.257812 113.617188 651.691406 113.21875 C 651.125 112.820312 650.570312 112.40625 650.023438 111.976562 C 649.480469 111.546875 648.949219 111.101562 648.429688 110.644531 C 647.910156 110.183594 647.402344 109.710938 646.910156 109.226562 C 646.417969 108.738281 645.9375 108.238281 645.472656 107.722656 C 645.007812 107.210938 644.558594 106.683594 644.121094 106.144531 C 643.6875 105.605469 643.265625 105.054688 642.859375 104.492188 C 642.453125 103.929688 642.0625 103.359375 641.691406 102.773438 C 641.316406 102.191406 640.960938 101.597656 640.621094 100.992188 C 640.277344 100.390625 639.957031 99.777344 639.648438 99.15625 C 639.34375 98.535156 639.050781 97.902344 638.78125 97.265625 C 638.507812 96.628906 638.253906 95.984375 638.019531 95.332031 C 637.785156 94.679688 637.566406 94.023438 637.367188 93.359375 C 637.167969 92.695312 636.988281 92.027344 636.824219 91.351562 C 636.664062 90.675781 636.519531 90 636.394531 89.316406 C 636.269531 88.636719 636.164062 87.949219 636.078125 87.261719 C 635.992188 86.574219 635.925781 85.886719 635.875 85.195312 C 635.828125 84.503906 635.800781 83.808594 635.789062 83.117188 C 635.78125 82.425781 635.789062 81.730469 635.816406 81.039062 C 635.847656 80.347656 635.894531 79.65625 635.960938 78.964844 C 636.027344 78.273438 636.117188 77.585938 636.222656 76.902344 C 636.328125 76.21875 636.449219 75.535156 636.59375 74.855469 C 636.738281 74.179688 636.898438 73.503906 637.078125 72.835938 C 637.261719 72.167969 637.460938 71.503906 637.675781 70.84375 C 637.894531 70.1875 638.128906 69.535156 638.382812 68.890625 C 638.636719 68.246094 638.910156 67.605469 639.199219 66.976562 C 639.488281 66.347656 639.792969 65.726562 640.117188 65.113281 C 640.921875 63.566406 641.839844 62.09375 642.871094 60.6875 C 643.984375 59.144531 645.207031 57.695312 646.539062 56.335938 C 647.871094 54.980469 649.300781 53.734375 650.824219 52.59375 C 652.347656 51.453125 653.949219 50.4375 655.628906 49.542969 C 657.308594 48.648438 659.042969 47.886719 660.839844 47.257812 C 662.632812 46.628906 664.464844 46.140625 666.335938 45.789062 C 668.207031 45.4375 670.089844 45.234375 671.992188 45.171875 C 673.894531 45.109375 675.789062 45.191406 677.675781 45.417969 C 679.566406 45.644531 681.425781 46.011719 683.257812 46.523438 C 685.089844 47.035156 686.871094 47.683594 688.605469 48.464844 C 690.339844 49.246094 692.003906 50.15625 693.597656 51.195312 C 695.195312 52.230469 696.703125 53.382812 698.121094 54.648438 C 699.539062 55.914062 700.855469 57.28125 702.066406 58.75 C 703.277344 60.21875 704.371094 61.765625 705.34375 63.402344 C 706.316406 65.035156 707.164062 66.734375 707.878906 68.496094 C 708.59375 70.261719 709.171875 72.066406 709.613281 73.917969 C 710.050781 75.769531 710.347656 77.644531 710.503906 79.539062 C 710.597656 80.542969 710.636719 81.558594 710.636719 82.585938 Z M 710.636719 82.585938 " fill-opacity="1" fill-rule="nonzero"/><path fill="#e6e6e6" d="M 596.117188 601.746094 C 596.117188 602.535156 596.078125 603.320312 596 604.105469 C 595.925781 604.890625 595.808594 605.667969 595.65625 606.441406 C 595.5 607.214844 595.308594 607.980469 595.082031 608.734375 C 594.851562 609.488281 594.585938 610.230469 594.285156 610.957031 C 593.984375 611.683594 593.648438 612.398438 593.277344 613.09375 C 592.90625 613.785156 592.5 614.460938 592.0625 615.117188 C 591.625 615.773438 591.15625 616.40625 590.65625 617.015625 C 590.15625 617.625 589.628906 618.207031 589.070312 618.765625 C 588.511719 619.320312 587.929688 619.851562 587.320312 620.351562 C 586.710938 620.851562 586.078125 621.320312 585.425781 621.757812 C 584.769531 622.195312 584.09375 622.601562 583.398438 622.972656 C 582.703125 623.34375 581.992188 623.679688 581.265625 623.980469 C 580.535156 624.285156 579.796875 624.546875 579.042969 624.777344 C 578.289062 625.007812 577.523438 625.199219 576.75 625.351562 C 575.976562 625.503906 575.199219 625.621094 574.414062 625.699219 C 573.632812 625.773438 572.84375 625.8125 572.058594 625.8125 C 571.269531 625.8125 570.484375 625.773438 569.699219 625.699219 C 568.914062 625.621094 568.136719 625.503906 567.363281 625.351562 C 566.589844 625.199219 565.828125 625.007812 565.074219 624.777344 C 564.320312 624.546875 563.578125 624.285156 562.851562 623.980469 C 562.121094 623.679688 561.410156 623.34375 560.714844 622.972656 C 560.019531 622.601562 559.347656 622.195312 558.691406 621.757812 C 558.035156 621.320312 557.402344 620.851562 556.792969 620.351562 C 556.183594 619.851562 555.601562 619.320312 555.042969 618.765625 C 554.488281 618.207031 553.960938 617.625 553.460938 617.015625 C 552.960938 616.40625 552.492188 615.773438 552.054688 615.117188 C 551.613281 614.460938 551.210938 613.785156 550.839844 613.089844 C 550.46875 612.398438 550.132812 611.683594 549.828125 610.957031 C 549.527344 610.226562 549.261719 609.488281 549.035156 608.734375 C 548.804688 607.980469 548.613281 607.214844 548.460938 606.441406 C 548.304688 605.667969 548.191406 604.890625 548.113281 604.105469 C 548.035156 603.320312 548 602.535156 548 601.746094 C 548 600.957031 548.035156 600.171875 548.113281 599.386719 C 548.191406 598.601562 548.308594 597.824219 548.460938 597.050781 C 548.613281 596.277344 548.804688 595.515625 549.035156 594.761719 C 549.261719 594.007812 549.527344 593.265625 549.828125 592.535156 C 550.132812 591.808594 550.46875 591.097656 550.839844 590.402344 C 551.210938 589.707031 551.613281 589.03125 552.054688 588.375 C 552.492188 587.71875 552.960938 587.089844 553.460938 586.480469 C 553.960938 585.871094 554.488281 585.285156 555.042969 584.730469 C 555.601562 584.171875 556.183594 583.644531 556.792969 583.144531 C 557.402344 582.644531 558.035156 582.175781 558.691406 581.734375 C 559.347656 581.296875 560.019531 580.894531 560.714844 580.523438 C 561.410156 580.148438 562.121094 579.8125 562.851562 579.511719 C 563.578125 579.210938 564.320312 578.945312 565.074219 578.714844 C 565.828125 578.488281 566.589844 578.296875 567.363281 578.140625 C 568.136719 577.988281 568.914062 577.875 569.699219 577.796875 C 570.484375 577.71875 571.269531 577.679688 572.058594 577.679688 C 572.84375 577.679688 573.632812 577.71875 574.414062 577.796875 C 575.199219 577.875 575.976562 577.988281 576.75 578.140625 C 577.523438 578.296875 578.289062 578.488281 579.042969 578.714844 C 579.796875 578.945312 580.535156 579.210938 581.265625 579.511719 C 581.992188 579.8125 582.703125 580.148438 583.398438 580.523438 C 584.09375 580.894531 584.769531 581.296875 585.425781 581.734375 C 586.078125 582.175781 586.710938 582.644531 587.320312 583.144531 C 587.929688 583.644531 588.511719 584.171875 589.070312 584.730469 C 589.628906 585.285156 590.15625 585.871094 590.65625 586.480469 C 591.15625 587.089844 591.625 587.71875 592.0625 588.375 C 592.5 589.03125 592.90625 589.707031 593.277344 590.402344 C 593.648438 591.097656 593.984375 591.808594 594.285156 592.535156 C 594.585938 593.265625 594.851562 594.007812 595.082031 594.761719 C 595.308594 595.515625 595.5 596.277344 595.65625 597.050781 C 595.808594 597.824219 595.925781 598.601562 596 599.386719 C 596.078125 600.171875 596.117188 600.957031 596.117188 601.746094 Z M 596.117188 601.746094 " fill-opacity="1" fill-rule="nonzero"/><path fill="#e6e6e6" d="M 411.96875 73.800781 C 411.96875 74.589844 411.929688 75.375 411.851562 76.160156 C 411.773438 76.945312 411.660156 77.722656 411.503906 78.496094 C 411.351562 79.269531 411.160156 80.03125 410.929688 80.785156 C 410.703125 81.542969 410.4375 82.28125 410.136719 83.011719 C 409.835938 83.738281 409.496094 84.449219 409.125 85.144531 C 408.753906 85.839844 408.351562 86.515625 407.914062 87.171875 C 407.476562 87.828125 407.007812 88.460938 406.507812 89.070312 C 406.007812 89.679688 405.476562 90.261719 404.921875 90.820312 C 404.363281 91.375 403.78125 91.90625 403.171875 92.40625 C 402.5625 92.90625 401.929688 93.375 401.273438 93.8125 C 400.621094 94.25 399.945312 94.652344 399.25 95.027344 C 398.554688 95.398438 397.84375 95.734375 397.113281 96.035156 C 396.386719 96.335938 395.644531 96.601562 394.890625 96.832031 C 394.136719 97.058594 393.375 97.25 392.601562 97.40625 C 391.828125 97.558594 391.050781 97.675781 390.265625 97.75 C 389.480469 97.828125 388.695312 97.867188 387.90625 97.867188 C 387.121094 97.867188 386.332031 97.828125 385.550781 97.75 C 384.765625 97.675781 383.988281 97.558594 383.214844 97.40625 C 382.441406 97.25 381.679688 97.058594 380.921875 96.832031 C 380.167969 96.601562 379.429688 96.335938 378.699219 96.035156 C 377.972656 95.734375 377.261719 95.398438 376.566406 95.027344 C 375.871094 94.652344 375.195312 94.25 374.542969 93.8125 C 373.886719 93.375 373.253906 92.90625 372.644531 92.40625 C 372.035156 91.90625 371.453125 91.375 370.894531 90.820312 C 370.339844 90.261719 369.808594 89.679688 369.308594 89.070312 C 368.808594 88.460938 368.339844 87.828125 367.902344 87.171875 C 367.464844 86.515625 367.0625 85.839844 366.6875 85.144531 C 366.316406 84.449219 365.980469 83.738281 365.679688 83.011719 C 365.378906 82.28125 365.113281 81.542969 364.882812 80.785156 C 364.65625 80.03125 364.464844 79.269531 364.3125 78.496094 C 364.15625 77.722656 364.042969 76.945312 363.964844 76.160156 C 363.886719 75.375 363.847656 74.589844 363.847656 73.800781 C 363.847656 73.011719 363.886719 72.226562 363.964844 71.441406 C 364.042969 70.65625 364.15625 69.878906 364.3125 69.105469 C 364.464844 68.332031 364.65625 67.570312 364.882812 66.8125 C 365.113281 66.058594 365.378906 65.320312 365.679688 64.589844 C 365.980469 63.863281 366.316406 63.152344 366.6875 62.457031 C 367.0625 61.761719 367.464844 61.085938 367.902344 60.429688 C 368.339844 59.773438 368.808594 59.140625 369.308594 58.53125 C 369.808594 57.921875 370.339844 57.339844 370.894531 56.78125 C 371.453125 56.226562 372.035156 55.695312 372.644531 55.195312 C 373.253906 54.695312 373.886719 54.226562 374.542969 53.789062 C 375.195312 53.351562 375.871094 52.945312 376.566406 52.574219 C 377.261719 52.203125 377.972656 51.867188 378.699219 51.566406 C 379.429688 51.265625 380.167969 51 380.921875 50.769531 C 381.679688 50.542969 382.441406 50.351562 383.214844 50.195312 C 383.988281 50.042969 384.765625 49.925781 385.550781 49.851562 C 386.332031 49.773438 387.121094 49.734375 387.90625 49.734375 C 388.695312 49.734375 389.480469 49.773438 390.265625 49.851562 C 391.050781 49.925781 391.828125 50.042969 392.601562 50.195312 C 393.375 50.351562 394.136719 50.542969 394.890625 50.769531 C 395.644531 51 396.386719 51.265625 397.113281 51.566406 C 397.84375 51.867188 398.554688 52.203125 399.25 52.574219 C 399.945312 52.945312 400.621094 53.351562 401.273438 53.789062 C 401.929688 54.226562 402.5625 54.695312 403.171875 55.195312 C 403.78125 55.695312 404.363281 56.226562 404.921875 56.78125 C 405.476562 57.339844 406.007812 57.921875 406.507812 58.53125 C 407.007812 59.140625 407.476562 59.773438 407.914062 60.429688 C 408.351562 61.085938 408.753906 61.761719 409.125 62.457031 C 409.496094 63.152344 409.835938 63.863281 410.136719 64.589844 C 410.4375 65.320312 410.703125 66.058594 410.929688 66.8125 C 411.160156 67.570312 411.351562 68.332031 411.503906 69.105469 C 411.660156 69.878906 411.773438 70.65625 411.851562 71.441406 C 411.929688 72.226562 411.96875 73.011719 411.96875 73.800781 Z M 411.96875 73.800781 " fill-opacity="1" fill-rule="nonzero"/></svg>